<svg width="28" height="28" viewBox="0 0 28 28" fill="none" xmlns="http://www.w3.org/2000/svg">
<rect width="28" height="28" rx="14" fill="#D15050"/>
<path fill-rule="evenodd" clip-rule="evenodd" d="M11.0305 8.55006C11.1432 8.22212 11.3311 7.92045 11.5838 7.67043C12.0173 7.24165 12.6061 7 13.2209 7H14.7828C15.3977 7 15.9865 7.24165 16.4199 7.67043C16.6727 7.92045 16.8606 8.22212 16.9733 8.55006H20.25C20.6642 8.55006 21 8.88034 21 9.28776C21 9.69518 20.6642 10.0255 20.25 10.0255H20.1883L19.4344 18.9784C19.4258 19.7759 19.1018 20.5397 18.5298 21.1055C17.9499 21.6791 17.1625 22.0023 16.3405 22.0023H11.6524C10.8304 22.0023 10.043 21.6791 9.4631 21.1055C8.89111 20.5397 8.56716 19.7759 8.55857 18.9784L7.80458 10.0255H7.75C7.33579 10.0255 7 9.69518 7 9.28776C7 8.88034 7.33579 8.55006 7.75 8.55006H11.0305ZM15.1156 8.54622H12.8881C12.992 8.4999 13.1053 8.4754 13.2209 8.4754H14.7828C14.8985 8.4754 15.0118 8.4999 15.1156 8.54622ZM13.5757 12.13C13.6872 12.0198 13.8383 11.9578 13.9959 11.9578C14.1535 11.9578 14.3047 12.0198 14.4161 12.13C14.5276 12.2403 14.5902 12.3898 14.5902 12.5457V18.4249C14.5902 18.5808 14.5276 18.7303 14.4161 18.8406C14.3047 18.9508 14.1535 19.0128 13.9959 19.0128C13.8383 19.0128 13.6872 18.9508 13.5757 18.8406C13.4642 18.7303 13.4016 18.5808 13.4016 18.4249V12.5457C13.4016 12.3898 13.4642 12.2403 13.5757 12.13ZM16.7203 12.1243C16.8305 12.0243 16.9747 11.9688 17.1243 11.9693L17.1742 11.9704C17.2528 11.9774 17.3284 11.9993 17.3982 12.0359C17.468 12.0724 17.5304 12.1225 17.5805 12.1829C17.6795 12.3025 17.7273 12.4561 17.7128 12.61L17.1951 18.4639C17.1823 18.6109 17.1137 18.7479 17.0036 18.8475C16.8935 18.947 16.7499 19.0019 16.6008 19.0013H16.552C16.4738 18.995 16.3976 18.9738 16.328 18.9382C16.2583 18.9026 16.1962 18.854 16.1457 18.7946C16.0952 18.7353 16.0578 18.6665 16.0343 18.5925C16.0107 18.5185 16.0017 18.4401 16.0087 18.3629L16.5299 12.509C16.5422 12.3615 16.6102 12.2243 16.7203 12.1243ZM10.8083 11.9693H10.8582H10.8594C11.0101 11.968 11.1558 12.0234 11.2668 12.1243C11.3779 12.2252 11.4458 12.3638 11.4572 12.5124L11.9749 18.3663C11.9877 18.521 11.9379 18.6748 11.8368 18.7935C11.7874 18.8527 11.7268 18.9015 11.658 18.937C11.5892 18.9726 11.5137 18.994 11.4363 19.0002C11.4182 19.0025 11.3999 19.0025 11.3818 19.0002C11.2326 19.0007 11.0879 18.9459 10.9778 18.8463C10.8677 18.7468 10.8003 18.6098 10.7874 18.4628L10.2686 12.6089C10.2563 12.4537 10.3058 12.3001 10.4067 12.1806C10.5075 12.061 10.6518 11.9851 10.8083 11.9693Z" fill="white"/>
</svg>
