<svg width="28" height="28" viewBox="0 0 28 28" fill="none" xmlns="http://www.w3.org/2000/svg">
<path fill-rule="evenodd" clip-rule="evenodd" d="M8.64286 6.5H19.3571C20.5406 6.5 21.5 7.45939 21.5 8.64286V19.3571C21.5 20.5406 20.5406 21.5 19.3571 21.5H8.64286C7.45939 21.5 6.5 20.5406 6.5 19.3571V8.64286C6.5 7.45939 7.45939 6.5 8.64286 6.5ZM17.8691 12.3373C18.0554 12.1335 18.0412 11.8172 17.8373 11.6309C17.6335 11.4446 17.3172 11.4588 17.1309 11.6627L12.9398 16.2484L10.8776 13.873C10.6965 13.6645 10.3807 13.6422 10.1722 13.8232C9.96369 14.0043 9.9414 14.3201 10.1224 14.5286L12.5526 17.3278C12.6461 17.4355 12.7812 17.4981 12.9238 17.5C13.0664 17.5018 13.203 17.4426 13.2993 17.3373L17.8691 12.3373Z" fill="#2A82F0"/>
</svg>
