<svg width="20" height="20" viewBox="0 0 20 20" fill="none" xmlns="http://www.w3.org/2000/svg">
<path fill-rule="evenodd" clip-rule="evenodd" d="M15.6722 3.22781C15.976 2.92406 16.4684 2.92406 16.7722 3.22781C17.0759 3.53155 17.0759 4.02401 16.7722 4.32775L11.0999 9.99998L16.7722 15.6722C17.0759 15.976 17.0759 16.4684 16.7722 16.7722C16.4684 17.0759 15.976 17.0759 15.6722 16.7722L9.99999 11.0999L4.32775 16.7722C4.02401 17.0759 3.53155 17.0759 3.22781 16.7722C2.92406 16.4684 2.92406 15.976 3.22781 15.6722L8.90004 9.99998L3.22782 4.32775C2.92407 4.02401 2.92407 3.53155 3.22782 3.22781C3.53156 2.92406 4.02402 2.92406 4.32776 3.22781L9.99999 8.90003L15.6722 3.22781Z" fill="black" fill-opacity="0.5"/>
</svg>
