<svg width="24" height="24" viewBox="0 0 24 24" fill="none" xmlns="http://www.w3.org/2000/svg">
<path d="M3.85316 19.9459L20.6814 12.5323C20.7782 12.4787 20.8586 12.4011 20.9146 12.3075C20.9705 12.2138 21 12.1073 21 11.999C21 11.8906 20.9705 11.7842 20.9146 11.6905C20.8586 11.5968 20.7782 11.5192 20.6814 11.4657L3.85316 4.052C3.75579 4.00912 3.64845 3.9923 3.54218 4.00325C3.43592 4.01421 3.33457 4.05255 3.24858 4.11433C3.16259 4.17611 3.09506 4.2591 3.05296 4.35474C3.01084 4.45039 2.99567 4.55523 3.009 4.65848L3.77217 10.5735L4.09705 10.853L14.46 11.6103C14.5605 11.6183 14.6541 11.6628 14.7224 11.735C14.7906 11.8072 14.8285 11.9017 14.8285 11.9998C14.8285 12.098 14.7906 12.1925 14.7224 12.2647C14.6541 12.3368 14.5605 12.3814 14.46 12.3894L4.11055 13.1466L3.76227 13.4341L3.0045 19.3421C3.00141 19.3662 2.9999 19.3905 3 19.4148C3.00005 19.5127 3.02531 19.6091 3.07347 19.695C3.12162 19.7809 3.19114 19.8537 3.27566 19.9067C3.36017 19.9598 3.45699 19.9913 3.55725 19.9984C3.65751 20.0056 3.75801 19.9881 3.84956 19.9477L3.85316 19.9459Z" fill="#2A82F0"/>
</svg>
