<svg width="480" height="320" viewBox="0 0 480 320" fill="none" xmlns="http://www.w3.org/2000/svg">
<path d="M366.49 137.632C366.49 137.632 385.623 139.527 395.314 151.389C395.314 151.389 405.565 137.649 423.963 137.932C428.459 132.508 431.322 125.919 432.218 118.93C433.115 111.942 432.007 104.843 429.025 98.4603C426.044 92.0771 421.31 86.6722 415.375 82.875C409.441 79.0777 402.55 77.0444 395.505 77.0116C388.46 76.9789 381.55 78.9481 375.58 82.69C369.611 86.4319 364.827 91.7926 361.786 98.1478C358.745 104.503 357.572 111.591 358.403 118.587C359.235 125.584 362.036 132.2 366.482 137.665L366.49 137.632Z" fill="#92E3A9"/>
<path opacity="0.5" d="M366.49 137.632C366.49 137.632 385.623 139.527 395.314 151.389C395.314 151.389 405.565 137.649 423.963 137.932C428.459 132.508 431.322 125.919 432.218 118.93C433.115 111.942 432.007 104.843 429.025 98.4603C426.044 92.0771 421.31 86.6722 415.375 82.875C409.441 79.0777 402.55 77.0444 395.505 77.0116C388.46 76.9789 381.55 78.9481 375.58 82.69C369.611 86.4319 364.827 91.7926 361.786 98.1478C358.745 104.503 357.572 111.591 358.403 118.587C359.235 125.584 362.036 132.2 366.482 137.665L366.49 137.632Z" fill="white"/>
<path d="M394.666 79.6333L394.023 203.628H397.254L394.666 79.6333Z" fill="#B8B8B8"/>
<path d="M395.645 147.776C395.645 147.776 402.097 136.147 413.725 132.591C413.725 132.591 401.455 135.505 395.361 145.513L395.645 147.776Z" fill="#B8B8B8"/>
<path d="M395.645 114.834C395.645 114.834 402.097 103.206 413.725 99.6499C413.725 99.6499 401.455 102.555 395.361 112.572L395.645 114.834Z" fill="#B8B8B8"/>
<path d="M395.645 131.288C395.645 131.288 402.097 119.66 413.725 116.104C413.725 116.104 401.455 119.017 395.361 129.026L395.645 131.288Z" fill="#B8B8B8"/>
<path d="M394.687 123.224C394.687 123.224 388.451 111.604 377.232 108.048C377.232 108.048 389.077 110.953 394.996 120.97L394.687 123.224Z" fill="#B8B8B8"/>
<path d="M394.687 139.376C394.687 139.376 388.451 127.747 377.232 124.2C377.232 124.2 389.077 127.105 394.996 137.113L394.687 139.376Z" fill="#B8B8B8"/>
<path d="M53.3464 137.632C53.3464 137.632 72.4791 139.527 82.1706 151.389C82.1706 151.389 92.4214 137.649 110.819 137.932C115.316 132.508 118.178 125.919 119.075 118.93C119.971 111.942 118.864 104.843 115.882 98.4603C112.9 92.0771 108.166 86.6722 102.232 82.875C96.2975 79.0777 89.4065 77.0444 82.3612 77.0116C75.316 76.9789 68.4064 78.9481 62.4369 82.69C56.4674 86.4319 51.6837 91.7926 48.6427 98.1478C45.6017 104.503 44.4285 111.591 45.2598 118.587C46.091 125.584 48.8925 132.2 53.3381 137.665L53.3464 137.632Z" fill="#92E3A9"/>
<path opacity="0.5" d="M53.3464 137.632C53.3464 137.632 72.4791 139.527 82.1706 151.389C82.1706 151.389 92.4214 137.649 110.819 137.932C115.316 132.508 118.178 125.919 119.075 118.93C119.971 111.942 118.864 104.843 115.882 98.4603C112.9 92.0771 108.166 86.6722 102.232 82.875C96.2975 79.0777 89.4065 77.0444 82.3612 77.0116C75.316 76.9789 68.4064 78.9481 62.4369 82.69C56.4674 86.4319 51.6837 91.7926 48.6427 98.1478C45.6017 104.503 44.4285 111.591 45.2598 118.587C46.091 125.584 48.8925 132.2 53.3381 137.665L53.3464 137.632Z" fill="white"/>
<path d="M81.5437 79.6333L80.8926 203.628H84.1231L81.5437 79.6333Z" fill="#B8B8B8"/>
<path d="M82.5089 147.776C82.5089 147.776 88.9616 136.147 100.59 132.591C100.59 132.591 88.3188 135.505 82.2251 145.513L82.5089 147.776Z" fill="#B8B8B8"/>
<path d="M82.5089 114.834C82.5089 114.834 88.9616 103.206 100.59 99.6499C100.59 99.6499 88.3188 102.555 82.2251 112.572L82.5089 114.834Z" fill="#B8B8B8"/>
<path d="M82.5089 131.288C82.5089 131.288 88.9616 119.66 100.59 116.104C100.59 116.104 88.3188 119.017 82.2251 129.026L82.5089 131.288Z" fill="#B8B8B8"/>
<path d="M81.5558 123.224C81.5558 123.224 75.3202 111.604 64.1011 108.048C64.1011 108.048 75.9463 110.953 81.8647 120.97L81.5558 123.224Z" fill="#B8B8B8"/>
<path d="M81.5558 139.376C81.5558 139.376 75.3202 127.747 64.1011 124.2C64.1011 124.2 75.9463 127.105 81.8647 137.113L81.5558 139.376Z" fill="#B8B8B8"/>
<path d="M288.746 149.653C288.746 149.653 304.406 151.197 312.336 160.905C312.336 160.905 320.726 149.661 335.785 149.887C339.463 145.447 341.804 140.053 342.536 134.334C343.268 128.615 342.36 122.806 339.918 117.583C337.477 112.359 333.602 107.937 328.745 104.831C323.887 101.724 318.248 100.062 312.482 100.036C306.716 100.01 301.062 101.623 296.177 104.686C291.293 107.749 287.379 112.137 284.891 117.338C282.403 122.54 281.444 128.341 282.125 134.066C282.806 139.791 285.099 145.205 288.738 149.678L288.746 149.653Z" fill="#92E3A9"/>
<path opacity="0.5" d="M288.746 149.653C288.746 149.653 304.406 151.197 312.336 160.905C312.336 160.905 320.726 149.661 335.785 149.887C339.463 145.447 341.804 140.053 342.536 134.334C343.268 128.615 342.36 122.806 339.918 117.583C337.477 112.359 333.602 107.937 328.745 104.831C323.887 101.724 318.248 100.062 312.482 100.036C306.716 100.01 301.062 101.623 296.177 104.686C291.293 107.749 287.379 112.137 284.891 117.338C282.403 122.54 281.444 128.341 282.125 134.066C282.806 139.791 285.099 145.205 288.738 149.678L288.746 149.653Z" fill="white"/>
<path d="M311.82 102.138L311.294 203.627H313.941L311.82 102.138Z" fill="#B8B8B8"/>
<path d="M312.614 157.916C312.614 157.916 317.906 148.4 327.414 145.487C327.414 145.487 317.397 147.866 312.389 156.063L312.614 157.916Z" fill="#B8B8B8"/>
<path d="M312.614 130.954C312.614 130.954 317.906 121.438 327.414 118.533C327.414 118.533 317.397 120.912 312.389 129.101L312.614 130.954Z" fill="#B8B8B8"/>
<path d="M312.614 144.434C312.614 144.434 317.906 134.918 327.414 132.004C327.414 132.004 317.397 134.383 312.389 142.581L312.614 144.434Z" fill="#B8B8B8"/>
<path d="M311.829 137.824C311.829 137.824 306.729 128.308 297.546 125.403C297.546 125.403 307.238 127.782 312.088 135.971L311.829 137.824Z" fill="#B8B8B8"/>
<path d="M311.829 151.038C311.829 151.038 306.729 141.522 297.546 138.617C297.546 138.617 307.238 140.996 312.088 149.193L311.829 151.038Z" fill="#B8B8B8"/>
<path d="M137.233 149.653C137.233 149.653 152.893 151.197 160.824 160.905C160.824 160.905 169.171 149.661 184.272 149.887C187.95 145.447 190.291 140.053 191.023 134.334C191.755 128.615 190.847 122.806 188.406 117.583C185.964 112.359 182.089 107.937 177.232 104.831C172.375 101.724 166.735 100.062 160.969 100.036C155.204 100.01 149.549 101.623 144.665 104.686C139.78 107.749 135.866 112.137 133.378 117.338C130.89 122.54 129.931 128.341 130.612 134.066C131.293 139.791 133.586 145.205 137.225 149.678L137.233 149.653Z" fill="#92E3A9"/>
<path opacity="0.5" d="M137.233 149.653C137.233 149.653 152.893 151.197 160.824 160.905C160.824 160.905 169.171 149.661 184.272 149.887C187.95 145.447 190.291 140.053 191.023 134.334C191.755 128.615 190.847 122.806 188.406 117.583C185.964 112.359 182.089 107.937 177.232 104.831C172.375 101.724 166.735 100.062 160.969 100.036C155.204 100.01 149.549 101.623 144.665 104.686C139.78 107.749 135.866 112.137 133.378 117.338C130.89 122.54 129.931 128.341 130.612 134.066C131.293 139.791 133.586 145.205 137.225 149.678L137.233 149.653Z" fill="white"/>
<path d="M160.304 102.138L159.778 203.627H162.424L160.304 102.138Z" fill="#B8B8B8"/>
<path d="M161.139 157.916C161.139 157.916 166.431 148.4 175.939 145.487C175.939 145.487 165.922 147.866 160.914 156.063L161.139 157.916Z" fill="#B8B8B8"/>
<path d="M161.139 130.954C161.139 130.954 166.431 121.438 175.939 118.533C175.939 118.533 165.922 120.912 160.914 129.101L161.139 130.954Z" fill="#B8B8B8"/>
<path d="M161.139 144.434C161.139 144.434 166.431 134.918 175.939 132.004C175.939 132.004 165.922 134.383 160.914 142.581L161.139 144.434Z" fill="#B8B8B8"/>
<path d="M160.304 137.824C160.304 137.824 155.212 128.308 146.029 125.445C146.029 125.445 155.721 127.824 160.571 136.013L160.304 137.824Z" fill="#B8B8B8"/>
<path d="M160.304 151.038C160.304 151.038 155.203 141.522 146.021 138.617C146.021 138.617 155.713 140.996 160.562 149.193L160.304 151.038Z" fill="#B8B8B8"/>
<path d="M59.1089 204.07H419.34" stroke="#263238" stroke-width="1.04742" stroke-miterlimit="10"/>
<path d="M187.445 47.5764C187.445 41.1237 190.851 37.4341 197.07 37.4341C203.289 37.4341 206.703 41.1237 206.703 47.5764V68.5622C206.703 75.0148 203.297 78.7045 197.07 78.7045C190.843 78.7045 187.445 75.0148 187.445 68.5622V47.5764ZM193.789 68.9628C193.789 71.8428 195.058 72.9363 197.07 72.9363C199.082 72.9363 200.359 71.8428 200.359 68.9628V47.1757C200.359 44.2958 199.09 43.2023 197.07 43.2023C195.05 43.2023 193.789 44.2958 193.789 47.1757V68.9628Z" fill="#263238"/>
<path d="M211.488 47.5764C211.488 41.1237 214.886 37.4341 221.113 37.4341C227.34 37.4341 230.738 41.1237 230.738 47.5764V68.5622C230.738 75.0148 227.332 78.7045 221.113 78.7045C214.894 78.7045 211.488 75.0148 211.488 68.5622V47.5764ZM217.824 68.9628C217.824 71.8428 219.093 72.9363 221.113 72.9363C223.133 72.9363 224.394 71.8428 224.394 68.9628V47.1757C224.394 44.2958 223.125 43.2023 221.113 43.2023C219.101 43.2023 217.824 44.2958 217.824 47.1757V68.9628Z" fill="#263238"/>
<path d="M254.825 47.8684V53.1106C254.825 59.5717 251.711 63.1277 245.375 63.1277H242.378V78.2869H236.034V37.9014H245.375C251.711 37.9014 254.825 41.4157 254.825 47.8684ZM242.378 43.6946V57.3512H245.375C247.387 57.3512 248.48 56.433 248.48 53.5531V47.5011C248.48 44.6128 247.387 43.6946 245.375 43.6946H242.378Z" fill="#263238"/>
<path d="M267.799 37.4341C273.96 37.4341 277.132 41.1237 277.132 47.5764V48.8452H271.138V47.1757C271.138 44.2958 269.986 43.2023 267.966 43.2023C265.946 43.2023 264.794 44.2958 264.794 47.1757C264.794 55.4732 277.19 57.0342 277.19 68.5622C277.19 75.0148 273.96 78.7045 267.741 78.7045C261.522 78.7045 258.283 75.0148 258.283 68.5622V66.0579H264.277V68.9378C264.277 71.8177 265.546 72.8612 267.566 72.8612C269.586 72.8612 270.846 71.8177 270.846 68.9378C270.846 60.6403 258.458 59.0793 258.458 47.5513C258.458 41.1321 261.631 37.4341 267.799 37.4341Z" fill="#263238"/>
<path d="M282.842 69.3049L282.007 54.7301V37.9014H288.351V54.7301L287.517 69.3049H282.842ZM288.26 72.1347V78.2452H282.183V72.1347H288.26Z" fill="#263238"/>
<path d="M173.763 290.867C176.735 290.867 178.004 292.629 178.004 295.492V297.762C178.004 300.759 176.602 302.328 173.605 302.328H171.735V309.783H169.631V290.867H173.763ZM173.605 300.433C175.166 300.433 175.925 299.707 175.925 297.929V295.425C175.925 293.697 175.299 292.829 173.763 292.829H171.735V300.475L173.605 300.433Z" fill="#263238"/>
<path d="M182.06 305.968L181.326 309.783H179.381L183.004 290.867H186.059L189.682 309.783H187.57L186.844 305.968H182.06ZM182.328 304.165H186.543L184.406 293.23L182.328 304.165Z" fill="#263238"/>
<path d="M200.215 295.432V297.052H198.211V295.324C198.211 293.654 197.535 292.603 195.999 292.603C194.463 292.603 193.787 293.621 193.787 295.324V305.341C193.787 307.01 194.488 308.071 195.999 308.071C197.51 308.071 198.211 307.044 198.211 305.341V301.576H196.266V299.681H200.215V305.249C200.215 308.112 198.862 309.999 195.949 309.999C193.036 309.999 191.7 308.112 191.7 305.249V295.432C191.7 292.569 193.052 290.683 195.949 290.683C198.846 290.683 200.215 292.569 200.215 295.432Z" fill="#263238"/>
<path d="M209.481 299.248V301.135H204.865V307.863H210.533V309.783H202.753V290.867H210.533V292.787H204.865V299.248H209.481Z" fill="#263238"/>
<path d="M219.616 309.783H217.729V290.867H220.409L224.783 304.54V290.867H226.653V309.783H224.458L219.624 294.49L219.616 309.783Z" fill="#263238"/>
<path d="M229.181 295.432C229.181 292.544 230.609 290.683 233.505 290.683C236.402 290.683 237.854 292.544 237.854 295.432V305.216C237.854 308.079 236.419 309.965 233.505 309.965C230.592 309.965 229.181 308.079 229.181 305.216V295.432ZM231.26 305.324C231.26 307.052 231.994 308.054 233.505 308.054C235.016 308.054 235.742 307.052 235.742 305.324V295.307C235.742 293.638 235.041 292.586 233.505 292.586C231.969 292.586 231.26 293.604 231.26 295.307V305.324Z" fill="#263238"/>
<path d="M243.149 309.783V292.787H239.668V290.867H248.742V292.787H245.261V309.783H243.149Z" fill="#263238"/>
<path d="M261.932 299.674V301.577H257.583V309.766H255.471V290.867H262.984V292.787H257.583V299.674H261.932Z" fill="#263238"/>
<path d="M265.036 295.432C265.036 292.544 266.471 290.683 269.36 290.683C272.248 290.683 273.709 292.544 273.709 295.432V305.216C273.709 308.079 272.281 309.965 269.36 309.965C266.438 309.965 265.036 308.079 265.036 305.216V295.432ZM267.123 305.324C267.123 307.052 267.849 308.054 269.36 308.054C270.871 308.054 271.605 307.052 271.605 305.324V295.307C271.605 293.638 270.904 292.586 269.36 292.586C267.815 292.586 267.123 293.604 267.123 295.307V305.324Z" fill="#263238"/>
<path d="M278.251 305.325C278.251 306.995 278.928 308.055 280.464 308.055C281.999 308.055 282.659 307.028 282.659 305.325V290.867H284.629V305.217C284.629 308.08 283.302 310 280.388 310C277.475 310 276.173 308.08 276.173 305.217V290.867H278.251V305.325Z" fill="#263238"/>
<path d="M289.108 309.783H287.188V290.867H289.859L294.233 304.54V290.867H296.103V309.783H293.95L289.108 294.49V309.783Z" fill="#263238"/>
<path d="M303.269 290.867C306.216 290.867 307.568 292.654 307.568 295.567V305.108C307.568 307.996 306.216 309.783 303.269 309.783H298.878V290.867H303.269ZM303.269 307.863C304.78 307.863 305.515 306.92 305.515 305.192V295.458C305.515 293.73 304.78 292.787 303.244 292.787H300.974V307.863H303.269Z" fill="#263238"/>
<path opacity="0.3" d="M157.458 244.356C157.458 246.86 142.074 248.855 123.083 248.855C104.092 248.855 88.7075 246.843 88.7075 244.356C88.7075 241.868 104.1 239.856 123.083 239.856C142.065 239.856 157.458 241.877 157.458 244.356Z" fill="black"/>
<path opacity="0.3" d="M229.423 244.356C229.423 246.86 214.03 248.855 195.048 248.855C176.065 248.855 160.672 246.843 160.672 244.356C160.672 241.868 176.065 239.856 195.048 239.856C214.03 239.856 229.423 241.877 229.423 244.356Z" fill="black"/>
<path opacity="0.3" d="M324.752 244.356C324.752 246.86 309.367 248.855 290.385 248.855C271.403 248.855 256.01 246.843 256.01 244.356C256.01 241.868 271.394 239.856 290.385 239.856C309.376 239.856 324.752 241.877 324.752 244.356Z" fill="black"/>
<path opacity="0.3" d="M404.387 244.356C404.387 246.86 388.995 248.855 370.012 248.855C351.03 248.855 335.604 246.843 335.604 244.356C335.604 241.868 350.996 239.856 369.979 239.856C388.961 239.856 404.387 241.877 404.387 244.356Z" fill="black"/>
<path d="M294.1 112.73C294.1 112.73 292.69 118.573 292.69 119.558C292.689 120.168 292.622 120.775 292.489 121.37C292.489 121.37 289.476 124.984 289.877 125.986C290.364 126.765 291.061 127.39 291.888 127.789C291.888 127.789 293.491 133.632 295.102 134.016C296.757 134.325 298.43 134.526 300.111 134.617L300.712 139.434L308.742 138.232L306.739 131.003L307.573 124.776C307.573 124.776 308.976 122.171 307.573 117.956C306.171 113.74 303.158 113.54 301.146 113.54C298.785 113.39 296.433 113.12 294.1 112.73Z" fill="white" stroke="#263238" stroke-width="1.04742" stroke-linecap="round" stroke-linejoin="round"/>
<path d="M297.716 109.726C297.716 109.726 290.688 109.517 290.888 111.328C291.088 113.14 298.317 115.502 298.317 115.502C298.317 115.502 295.905 117.105 297.107 118.716C298.309 120.327 301.122 121.729 301.122 121.729C301.122 121.729 300.287 125.144 301.531 125.344C302.775 125.544 303.535 123.733 303.735 123.132C303.935 122.531 306.147 122.731 306.748 124.334C307.088 125.167 307.291 126.049 307.349 126.947C307.349 126.947 309.762 119.718 310.163 116.504C310.563 113.29 301.531 109.726 297.716 109.726Z" fill="#263238" stroke="#263238" stroke-width="1.04742" stroke-linecap="round" stroke-linejoin="round"/>
<path d="M302.163 125.445C302.163 125.445 304.592 120.102 306.045 122.732C307.497 125.361 306.879 128.099 305.452 128.391C304.025 128.683 302.831 128.967 302.831 128.967" fill="white"/>
<path d="M302.163 125.445C302.163 125.445 304.592 120.102 306.045 122.732C307.497 125.361 306.879 128.099 305.452 128.391C304.025 128.683 302.831 128.967 302.831 128.967" stroke="#263238" stroke-width="1.04742" stroke-linecap="round" stroke-linejoin="round"/>
<path d="M292.29 181.197C291.898 181.657 285.462 195.455 284.66 200.071C283.859 204.687 278.642 232.201 278.433 233.403C278.224 234.605 267.197 237.018 266.388 237.218C265.578 237.418 267.222 239.63 269.601 240.231C271.98 240.832 278.842 243.646 280.453 242.034C282.064 240.423 284.268 231.391 284.869 230.39C285.47 229.388 296.773 202.759 296.773 202.759C296.773 202.759 302.566 189.979 303.768 188.769C304.97 187.558 302.341 182.207 301.33 180.596C300.32 178.985 295.103 177.984 292.29 181.197Z" fill="#263238" stroke="#263238" stroke-width="1.04742" stroke-linecap="round" stroke-linejoin="round"/>
<path d="M291.088 181.373C291.088 181.373 293.901 194.829 295.304 199.646C296.616 203.691 298.591 207.491 301.147 210.89C302.758 213.102 310.588 232.594 310.588 232.594L311.79 235.607C311.79 235.607 311.389 236.809 309.186 238.412C306.982 240.015 300.746 242.627 302.357 243.237C303.968 243.846 310.388 243.838 313.401 243.637C315.996 243.454 318.428 242.307 320.221 240.424C321.432 239.013 318.218 234.998 318.218 234.196C318.218 233.395 311.189 208.903 310.788 207.693C310.388 206.482 308.376 197.859 308.376 197.859V188.051C308.376 188.051 309.386 186.248 309.386 182.208C309.386 178.167 306.373 177.383 306.373 177.383L289.903 178.994L291.088 181.373Z" fill="#263238" stroke="#263238" stroke-width="1.04742" stroke-linecap="round" stroke-linejoin="round"/>
<path d="M289.693 180.195C289.693 180.195 290.102 183.609 291.304 183.809C292.506 184.009 304.953 187.424 310.379 183.408C310.379 183.408 311.38 180.395 310.779 179.594C310.178 178.792 308.768 179.193 301.547 179.193C294.326 179.193 289.693 179.193 289.693 180.195Z" fill="#92E3A9" stroke="#263238" stroke-width="1.04742" stroke-linecap="round" stroke-linejoin="round"/>
<path d="M308.152 135.22C308.152 135.22 300.722 136.221 297.509 139.394C294.295 142.566 291.49 148.434 290.088 153.851C288.685 159.269 287.675 179.153 289.679 180.155C291.682 181.156 308.553 182.166 311.382 180.989C314.212 179.812 311.182 170.346 311.182 166.732C311.182 163.117 314.396 150.871 313.795 144.051C313.194 137.231 308.152 135.22 308.152 135.22Z" fill="#92E3A9" stroke="#263238" stroke-width="1.04742" stroke-linecap="round" stroke-linejoin="round"/>
<path d="M281.345 156.088C281.254 147.824 277.881 140.77 273.399 137.723V136.054L261.044 136.179C254.091 136.254 248.523 145.361 248.665 156.464C248.807 167.566 254.508 176.556 261.47 176.498L273.824 176.372V174.703C278.165 171.472 281.387 164.352 281.345 156.088Z" fill="#263238" stroke="#263238" stroke-width="1.04742" stroke-linecap="round" stroke-linejoin="round"/>
<path d="M286.891 156.029C286.8 147.347 283.452 139.935 278.744 136.713V134.935L273.452 134.993C266.139 135.068 260.321 144.609 260.446 156.304C260.572 167.999 266.59 177.415 273.903 177.34L279.195 177.282V175.512C283.794 172.19 286.983 164.677 286.891 156.029Z" fill="white" stroke="#263238" stroke-width="1.04742" stroke-linecap="round" stroke-linejoin="round"/>
<path d="M292.201 155.971C292.327 167.658 286.5 177.207 279.196 177.282C271.892 177.357 265.84 167.941 265.74 156.255C265.639 144.568 271.441 135.019 278.745 134.935C286.049 134.852 292.059 144.276 292.201 155.971Z" fill="#737373" stroke="#263238" stroke-width="1.04742" stroke-linecap="round" stroke-linejoin="round"/>
<path d="M289.159 155.612C289.217 161.146 286.454 165.671 282.99 165.713C279.526 165.754 276.671 161.28 276.612 155.695C276.554 150.111 279.317 145.678 282.781 145.595C286.245 145.511 289.1 150.069 289.159 155.612Z" fill="#263238" stroke="#263238" stroke-width="1.04742" stroke-linecap="round" stroke-linejoin="round"/>
<path d="M387.527 197.233C388.216 192.088 388.509 186.897 388.404 181.707C385.691 182.959 369.864 183.418 368.411 183.451C366.959 183.485 351.132 182.959 348.419 181.707C348.299 186.896 348.579 192.087 349.254 197.233C350.347 204.003 359.964 231.107 360.181 232.418C360.462 233.682 360.827 234.926 361.274 236.141C361.274 236.141 355.807 240.073 353.402 241.6C350.998 243.128 352.751 243.787 355.155 243.787C357.56 243.787 362.585 243.128 364.112 243.128C365.465 243.128 367.819 241.951 368.37 241.667C368.921 241.951 371.275 243.128 372.619 243.128C374.154 243.128 379.18 243.787 381.584 243.787C383.988 243.787 385.758 243.128 383.337 241.6C380.916 240.073 375.465 236.141 375.465 236.141C375.912 234.926 376.277 233.682 376.559 232.418C376.817 231.082 386.434 203.978 387.527 197.233Z" fill="#263238" stroke="#263238" stroke-width="1.04742" stroke-linecap="round" stroke-linejoin="round"/>
<path d="M365.106 139.21C365.106 139.21 356.65 141.973 352.285 144.744C347.919 147.516 343.536 162.525 343.536 163.109C343.285 164.155 342.945 165.177 342.518 166.164C342.518 166.164 338.144 165.146 337.276 168.785C336.408 172.425 341.641 177.091 344.413 177.241C347.184 177.392 348.052 176.515 348.052 176.515C348.052 176.515 346.308 180.013 347.034 181.465C347.76 182.918 353.887 188.319 365.983 188.143C378.079 187.968 386.852 185.956 388.129 184.212C389.406 182.467 389.59 178.819 389.59 178.819C389.59 178.819 394.106 177.65 395.709 174.737C397.311 171.824 397.019 168.76 396.143 165.705C395.266 162.65 390.75 153.776 387.695 148.818C384.64 143.86 378.22 141.097 375.174 140.22C372.127 139.344 367.143 139.21 365.106 139.21Z" fill="#92E3A9" stroke="#263238" stroke-width="1.04742" stroke-linecap="round" stroke-linejoin="round"/>
<path d="M367.67 151.481C368.88 151.08 372.679 147.708 374.139 144.335C374.717 143.044 375.124 141.683 375.35 140.287L375.158 140.228C372.103 139.352 367.144 139.21 365.141 139.21C365.141 139.21 363.371 139.786 361.034 140.679C361.048 142.484 361.387 144.271 362.035 145.955C363.354 149.327 366.493 151.89 367.67 151.481Z" fill="white" stroke="#263238" stroke-width="1.04742" stroke-linecap="round" stroke-linejoin="round"/>
<path d="M381.564 158.292C381.564 158.292 385.062 176.949 389.027 178.869" stroke="#263238" stroke-width="1.04742" stroke-linecap="round" stroke-linejoin="round"/>
<path d="M348.052 176.513C348.052 176.513 352.426 160.044 352.719 158.441" stroke="#263238" stroke-width="1.04742" stroke-linecap="round" stroke-linejoin="round"/>
<path d="M387.217 166.722C387.217 166.722 384.796 167.264 384.796 169.017" stroke="#263238" stroke-width="1.04742" stroke-linecap="round" stroke-linejoin="round"/>
<path d="M346.086 166.99C346.086 166.99 348.783 168.743 348.516 171.439" stroke="#263238" stroke-width="1.04742" stroke-linecap="round" stroke-linejoin="round"/>
<path d="M364.157 243.146C365.509 243.146 367.863 241.969 368.414 241.685C368.965 241.969 371.319 243.146 372.663 243.146C374.199 243.146 379.224 243.806 381.628 243.806C384.032 243.806 385.802 243.146 383.381 241.618C381.286 240.291 376.895 237.153 375.776 236.351C373.197 238.705 368.097 238.121 368.097 238.121C367.063 237.965 366.04 237.748 365.033 237.47C363.506 237.027 361.318 236.159 361.318 236.159C361.318 236.159 355.851 240.091 353.447 241.618C351.043 243.146 352.796 243.806 355.2 243.806C357.604 243.806 362.629 243.146 364.157 243.146Z" fill="#92E3A9" stroke="#263238" stroke-width="1.04742" stroke-linecap="round" stroke-linejoin="round"/>
<path d="M368.097 236.192V198.077" stroke="white" stroke-width="1.04742" stroke-linecap="round" stroke-linejoin="round"/>
<path d="M368.414 241.643L368.097 238.079V236.192" stroke="#263238" stroke-width="1.04742" stroke-linecap="round" stroke-linejoin="round"/>
<path d="M365.028 196.765H371.364" stroke="white" stroke-width="1.04742" stroke-linecap="round" stroke-linejoin="round"/>
<path d="M356.752 117.339C356.752 117.339 352.211 120.061 352.887 122.448C353.563 124.835 355.617 125.294 355.166 126.622C354.715 127.949 353.137 128.784 354.932 129.618C355.954 130.076 357.024 130.421 358.121 130.645C358.121 130.645 359.79 136.438 362.662 137.457C365.534 138.475 370.509 137.799 374.031 137.348C375.221 137.232 376.348 136.756 377.26 135.983C378.173 135.211 378.829 134.179 379.14 133.024C379.482 131.781 377.663 133.258 376.753 131.889C375.843 130.52 377.212 127.006 378.23 123.934C379.249 120.862 376.185 115.069 372.212 113.14C368.238 111.212 360.65 112.222 356.752 117.339Z" fill="#263238" stroke="#263238" stroke-width="1.04742" stroke-linecap="round" stroke-linejoin="round"/>
<path d="M364.382 137.13C363.804 139.035 363.413 140.992 363.213 142.973C363.063 145.477 365.108 148.224 367.295 148.074C369.482 147.923 371.368 143.558 371.661 141.396C371.953 139.233 370.934 133.382 370.934 133.382C370.934 133.382 367.595 133.532 366.268 134.692C365.489 135.376 364.848 136.204 364.382 137.13Z" fill="white" stroke="#263238" stroke-width="1.04742" stroke-linecap="round" stroke-linejoin="round"/>
<path d="M361.415 120.52C361.415 120.52 361.523 123.926 364.937 127.198C366.99 129.183 369.423 130.73 372.091 131.747C372.032 132.493 371.839 133.223 371.524 133.901C371.375 134.185 371.144 134.417 370.861 134.566C370.577 134.715 370.255 134.774 369.938 134.736H368.794C368.794 134.736 367.124 138.651 365.104 139.219C363.084 139.786 358.117 139.394 357.433 134.394C356.748 129.393 356.64 125.303 357.207 124.276C357.775 123.25 361.415 120.52 361.415 120.52Z" fill="white" stroke="#263238" stroke-width="1.04742" stroke-linecap="round" stroke-linejoin="round"/>
<path d="M397.137 164.512C397.655 163.468 397.97 162.335 398.064 161.173C398.064 159.654 395.242 157.475 394.725 156.932C394.207 156.39 393.69 156.448 393.581 157.208C393.58 157.634 393.666 158.056 393.833 158.448C394.001 158.84 394.248 159.194 394.558 159.487C394.981 159.82 395.288 160.279 395.434 160.797C395.484 161.173 394.499 163.018 394.992 164.211C395.484 165.405 396.87 165.764 397.137 164.512Z" fill="white" stroke="#263238" stroke-width="1.04742" stroke-linecap="round" stroke-linejoin="round"/>
<path d="M284.085 155.989C284.085 155.989 296.373 159.92 303.76 169.103C311.148 178.285 315.998 176.966 325.18 173.911C334.362 170.856 337.86 159.92 350.54 169.103C363.22 178.285 365.841 181.774 376.334 176.532C386.827 171.29 392.503 158.61 402.128 162.976C411.753 167.341 407.37 189.688 408.247 200.54C409.123 211.392 407.804 238.58 409.991 242.077C412.178 245.575 434.475 242.912 434.475 242.912" stroke="#263238" stroke-width="3.14226" stroke-linecap="round" stroke-linejoin="round"/>
<path d="M307.099 141.396C307.099 141.396 304.653 137.406 301.047 138.449C297.232 139.551 295.262 145.002 294.369 148.4C293.475 151.797 292.874 155.47 291.238 158.634C291.238 158.634 284.009 158.509 279.977 157.34C276.901 156.381 273.875 155.266 270.912 154.001C270.912 154.001 269.484 152.006 268.474 151.614C267.464 151.221 264.843 150.453 264.651 151.054C264.459 151.655 267.69 153.634 267.69 153.634C267.69 153.634 261.679 154.468 261.078 155.111C260.477 155.754 265.327 157.674 265.327 157.674C265.327 157.674 267.139 158.258 271.546 157.206C271.546 157.206 287.716 167.474 290.938 168.651C294.16 169.828 295.946 170.204 298.142 165.963C300.337 161.722 307.624 151.204 308.785 146.972" fill="#92E3A9"/>
<path d="M307.099 141.396C307.099 141.396 304.653 137.406 301.047 138.449C297.232 139.551 295.262 145.002 294.369 148.4C293.475 151.797 292.874 155.47 291.238 158.634C291.238 158.634 284.009 158.509 279.977 157.34C276.901 156.381 273.875 155.266 270.912 154.001C270.912 154.001 269.484 152.006 268.474 151.614C267.464 151.221 264.843 150.453 264.651 151.054C264.459 151.655 267.69 153.634 267.69 153.634C267.69 153.634 261.679 154.468 261.078 155.111C260.477 155.754 265.327 157.674 265.327 157.674C265.327 157.674 267.139 158.258 271.546 157.206C271.546 157.206 287.716 167.474 290.938 168.651C294.16 169.828 295.946 170.204 298.142 165.963C300.337 161.722 307.624 151.204 308.785 146.972" stroke="#263238" stroke-width="1.04742" stroke-linecap="round" stroke-linejoin="round"/>
<path d="M275.111 155.705C272.749 154.82 270.937 154.035 270.937 154.035C270.937 154.035 269.51 152.04 268.5 151.648C267.49 151.256 264.869 150.488 264.677 151.089C264.485 151.69 267.715 153.668 267.715 153.668C267.715 153.668 261.705 154.503 261.104 155.145C260.503 155.788 265.353 157.708 265.353 157.708C265.353 157.708 267.164 158.293 271.572 157.241L273.834 158.668L275.111 155.705Z" fill="white" stroke="#263238" stroke-width="1.04742" stroke-linecap="round" stroke-linejoin="round"/>
<path d="M337.435 166.046C336.917 165.002 336.603 163.869 336.509 162.707C336.509 161.188 339.339 159.017 339.848 158.475C340.357 157.932 340.875 157.991 340.983 158.75C340.985 159.177 340.899 159.599 340.731 159.991C340.563 160.383 340.316 160.736 340.006 161.029C339.583 161.363 339.277 161.821 339.13 162.34C339.08 162.707 340.065 164.56 339.572 165.754C339.08 166.948 337.703 167.29 337.435 166.046Z" fill="white" stroke="#263238" stroke-width="1.04742" stroke-linecap="round" stroke-linejoin="round"/>
<path d="M339.379 161.463C339.379 161.463 337.05 165.762 338.402 167.306C339.754 168.85 341.065 163.833 341.315 162.448C341.566 161.062 340.239 159.668 339.379 161.463Z" fill="white" stroke="#263238" stroke-width="1.04742" stroke-linecap="round" stroke-linejoin="round"/>
<path d="M341.299 163.006C341.299 163.006 338.97 167.305 340.322 168.85C341.674 170.394 342.985 165.377 343.235 163.991C343.486 162.606 342.159 161.162 341.299 163.006Z" fill="white" stroke="#263238" stroke-width="1.04742" stroke-linecap="round" stroke-linejoin="round"/>
<path d="M343.411 163.367C343.411 163.367 341.082 167.666 342.434 169.211C343.787 170.755 345.097 165.738 345.348 164.352C345.598 162.967 344.271 161.564 343.411 163.367Z" fill="white" stroke="#263238" stroke-width="1.04742" stroke-linecap="round" stroke-linejoin="round"/>
<path d="M346.118 163.4C346.118 163.4 343.948 166.74 345.133 168C346.318 169.26 347.595 165.295 347.846 164.152C348.096 163.008 346.919 161.898 346.118 163.4Z" fill="white" stroke="#263238" stroke-width="1.04742" stroke-linecap="round" stroke-linejoin="round"/>
<path d="M395.582 161.63C395.582 161.63 397.911 165.929 396.559 167.473C395.207 169.017 393.896 163.992 393.646 162.606C393.395 161.221 394.723 159.827 395.582 161.63Z" fill="white" stroke="#263238" stroke-width="1.04742" stroke-linecap="round" stroke-linejoin="round"/>
<path d="M393.662 163.133C393.662 163.133 395.991 167.432 394.639 168.977C393.287 170.521 391.976 165.496 391.726 164.11C391.475 162.724 392.803 161.339 393.662 163.133Z" fill="white" stroke="#263238" stroke-width="1.04742" stroke-linecap="round" stroke-linejoin="round"/>
<path d="M391.535 163.535C391.535 163.535 393.864 167.834 392.512 169.378C391.16 170.923 389.849 165.906 389.607 164.512C389.365 163.118 390.701 161.732 391.535 163.535Z" fill="white" stroke="#263238" stroke-width="1.04742" stroke-linecap="round" stroke-linejoin="round"/>
<path d="M388.849 163.566C388.849 163.566 391.019 166.947 389.834 168.166C388.649 169.384 387.371 165.461 387.129 164.317C386.887 163.174 388.047 162.063 388.849 163.566Z" fill="white" stroke="#263238" stroke-width="1.04742" stroke-linecap="round" stroke-linejoin="round"/>
<path d="M101.639 211.132V215.873C99.9938 217.672 98.8106 219.843 98.1916 222.201C97.1815 226.074 94.0178 242.744 94.8526 243.178C95.6873 243.612 103.542 245.407 106.047 245.031C108.918 244.597 111.364 244.748 109.92 243.162C108.476 241.576 100.888 237.143 100.888 237.143C100.888 237.143 109.235 225.072 111.089 220.615C112.942 216.157 113.242 209.262 113.242 209.262L102.04 208.836L101.639 211.132Z" fill="white" stroke="#263238" stroke-width="1.04742" stroke-linecap="round" stroke-linejoin="round"/>
<path d="M106.049 245.03C108.921 244.596 111.367 244.746 109.923 243.16C108.479 241.574 100.891 237.142 100.891 237.142L100.607 238.861L95.1392 238.193C94.7385 240.981 94.5632 243.027 94.8554 243.202C95.7486 243.603 103.545 245.406 106.049 245.03Z" fill="#263238" stroke="#263238" stroke-width="1.04742" stroke-linecap="round" stroke-linejoin="round"/>
<path d="M129.086 213.586L130.38 215.89C129.843 216.924 129.528 218.059 129.453 219.221C129.378 220.384 129.546 221.549 129.945 222.643C131.239 226.667 134.261 241.467 134.261 242.327C134.261 243.187 136.123 243.763 137.6 243.763C139.078 243.763 143.168 244.047 143.744 244.047C144.32 244.047 148.485 244.764 149.921 243.905C151.357 243.045 148.093 241.317 145.939 240.315C143.786 239.314 139.044 236.726 139.044 236.726C139.044 236.726 140.188 224.939 140.188 219.764C140.188 214.588 141.34 212.868 139.762 209.705C138.184 206.541 128.268 211.149 128.268 211.149L129.086 213.586Z" fill="white" stroke="#263238" stroke-width="1.04742" stroke-linecap="round" stroke-linejoin="round"/>
<path d="M145.9 240.314C143.747 239.304 139.005 236.725 139.005 236.725L138.429 238.878L133.813 239.713C134.088 241.149 134.264 242.134 134.264 242.334C134.264 243.169 136.125 243.77 137.603 243.77C139.08 243.77 143.171 244.054 143.747 244.054C144.323 244.054 148.488 244.772 149.924 243.912C151.36 243.052 148.054 241.316 145.9 240.314Z" fill="#263238" stroke="#263238" stroke-width="1.04742" stroke-linecap="round" stroke-linejoin="round"/>
<path d="M121.347 117.93C120.221 116.005 118.933 114.179 117.499 112.471C115.52 110.242 109.318 110.367 106.597 113.305C103.876 116.244 104.735 121.486 105.762 122.972C106.789 124.458 108.859 131.403 108.859 131.403L109.352 136.361L120.88 140.452L118.526 132.396C118.526 132.396 122.991 131.562 123.359 130.168C123.726 128.773 122.616 124.09 122.616 124.09C122.616 124.09 124.102 123.097 123.976 122.229C123.851 121.361 121.347 117.93 121.347 117.93Z" fill="white" stroke="#263238" stroke-width="1.04742" stroke-linecap="round" stroke-linejoin="round"/>
<path d="M108.083 123.273C108.083 123.273 110.053 124.943 111.13 123.031C112.207 121.12 113.025 119.25 113.025 117.63C113.025 116.011 108.976 114.667 111.672 113.582C114.369 112.497 116.314 114.909 117.516 112.488C118.718 110.067 117.624 109.809 111.147 109.809C104.669 109.809 101.43 113.047 102.799 117.096C103.894 120.086 105.249 122.974 106.848 125.727L108.083 123.273Z" fill="#263238" stroke="#263238" stroke-width="1.04742" stroke-linecap="round" stroke-linejoin="round"/>
<path d="M121.715 120.796C121.715 121.409 121.533 122.007 121.193 122.517C120.853 123.026 120.369 123.423 119.803 123.657C119.237 123.892 118.615 123.953 118.014 123.834C117.413 123.714 116.861 123.419 116.428 122.986C115.995 122.553 115.7 122.001 115.581 121.4C115.461 120.8 115.522 120.177 115.757 119.611C115.991 119.045 116.388 118.561 116.897 118.221C117.407 117.881 118.005 117.699 118.618 117.699C119.439 117.699 120.227 118.026 120.808 118.606C121.389 119.187 121.715 119.975 121.715 120.796Z" stroke="#263238" stroke-width="1.04742" stroke-linecap="round" stroke-linejoin="round"/>
<path d="M121.263 118.048C121.624 117.901 122.009 117.824 122.398 117.823C123.043 117.824 123.67 118.039 124.179 118.434C124.689 118.83 125.052 119.383 125.214 120.007C125.375 120.632 125.325 121.292 125.071 121.884C124.816 122.477 124.373 122.969 123.809 123.282" stroke="#263238" stroke-width="1.04742" stroke-linecap="round" stroke-linejoin="round"/>
<path d="M115.523 120.794L108.085 123.274" stroke="#263238" stroke-width="1.04742" stroke-linecap="round" stroke-linejoin="round"/>
<path d="M110.22 124.885C110.22 124.885 108.734 121.788 107.248 122.381C105.762 122.974 106.505 127.84 107.991 128.333C108.49 128.445 109.009 128.436 109.504 128.307C110 128.178 110.457 127.932 110.837 127.59C110.837 127.59 112.081 130.194 113.567 130.929" fill="white"/>
<path d="M110.22 124.885C110.22 124.885 108.734 121.788 107.248 122.381C105.762 122.974 106.505 127.84 107.991 128.333C108.49 128.445 109.009 128.436 109.504 128.307C110 128.178 110.457 127.932 110.837 127.59C110.837 127.59 112.081 130.194 113.567 130.929" stroke="#263238" stroke-width="1.04742" stroke-linecap="round" stroke-linejoin="round"/>
<path d="M100.47 180.537L99.5434 192.408L96.772 209.979C96.772 209.979 103.25 215.063 109.293 215.063C115.337 215.063 116.998 214.295 116.998 214.295L120.387 196.264L123.776 215.222C123.776 215.222 130.454 214.145 134.879 213.06C137.955 212.203 140.871 210.85 143.51 209.053L134.57 185.78L132.633 173.776C132.633 173.776 122.616 174.702 116.597 175.011C110.579 175.32 102.574 173.776 102.574 173.776L100.47 180.537Z" fill="#92E3A9" stroke="#263238" stroke-width="1.04742" stroke-linecap="round" stroke-linejoin="round"/>
<path d="M106.825 133.109C106.825 133.109 121.016 138.059 125.398 142.867C127.819 145.538 130.532 163.819 131.509 168.285C132.485 172.751 134.188 181.641 134.188 181.641C134.188 181.641 125.532 185.548 118.837 185.69C112.142 185.832 99.2954 182.76 99.2954 182.76C99.2954 182.76 100.823 162.951 100.823 153.744C100.823 144.536 100.965 138.526 102.493 135.596C102.501 135.621 105.013 132.825 106.825 133.109Z" fill="#263238" stroke="#263238" stroke-width="1.04742" stroke-linecap="round" stroke-linejoin="round"/>
<path d="M103.094 184.194C103.094 184.194 103.862 197.141 103.094 201.924C102.554 205.01 101.623 208.014 100.322 210.864" stroke="#263238" stroke-width="1.04742" stroke-linecap="round" stroke-linejoin="round"/>
<path d="M103.403 190.363C104.562 189.965 105.598 189.272 106.409 188.353C107.22 187.434 107.777 186.32 108.028 185.121" stroke="#263238" stroke-width="1.04742" stroke-linecap="round" stroke-linejoin="round"/>
<path d="M97.5391 207.474C97.5391 207.474 105.252 214.102 117.273 211.648" stroke="#263238" stroke-width="1.04742" stroke-linecap="round" stroke-linejoin="round"/>
<path d="M123.443 211.325C123.443 211.325 136.081 209.94 141.632 206.242" stroke="#263238" stroke-width="1.04742" stroke-linecap="round" stroke-linejoin="round"/>
<path d="M179.976 127.113C179.976 127.113 178.757 128.015 174.508 131.12C170.259 134.226 173.607 138.917 173.607 138.917C173.607 138.917 170.568 139.393 166.511 143.658C162.454 147.924 168.323 155.245 173.807 156.388C179.291 157.532 185.702 150.745 187.622 144.451C189.542 138.157 187.005 128.666 185.727 126.704C184.45 124.743 179.976 127.113 179.976 127.113Z" fill="#263238" stroke="#263238" stroke-width="1.04742" stroke-linecap="round" stroke-linejoin="round"/>
<path d="M196.068 126.279C196.068 126.279 198.179 123.015 196.268 118.282C194.356 113.549 188.647 111.387 183.087 114.817C181.234 115.92 179.797 117.603 178.998 119.606C178.2 121.609 178.085 123.82 178.671 125.895C179.214 128.082 181.952 131.446 182.528 131.496C183.104 131.546 188.104 133.366 191.518 131.771C194.932 130.177 196.068 126.279 196.068 126.279Z" fill="#263238" stroke="#263238" stroke-width="1.04742" stroke-linecap="round" stroke-linejoin="round"/>
<path d="M171.5 236.466C171.5 236.466 175.465 242.635 182.351 243.687C189.238 244.739 183.044 238.562 181.884 237.627C180.724 236.692 172.434 234.672 171.5 236.466Z" fill="#737373" stroke="#263238" stroke-width="1.04742" stroke-linecap="round" stroke-linejoin="round"/>
<path d="M208.189 238.053C208.189 238.053 215.76 239.915 215.176 241.551C214.592 243.187 208.423 243.062 204.817 242.127C201.211 241.192 197.821 239.798 198.289 238.287C198.756 236.776 208.189 238.053 208.189 238.053Z" fill="#737373" stroke="#263238" stroke-width="1.04742" stroke-linecap="round" stroke-linejoin="round"/>
<path d="M186.659 138.55C186.659 138.55 176.525 140.036 174.672 143.617C172.819 147.198 175.431 166.706 175.431 166.706C175.431 166.706 171.107 176.247 171.049 182.391C170.99 188.535 173.728 199.345 173.511 202.041C173.294 204.738 170.523 235.432 170.523 236.266C170.523 237.101 176.366 238.971 184.789 239.973C193.212 240.974 209.322 237.978 209.322 237.978C209.322 237.978 209.005 219.863 209.848 209.062C210.691 198.26 209.489 188.552 207.344 184.52C205.199 180.488 195.207 165.972 195.207 165.972C195.207 165.972 200.048 157.19 200.349 153.35C200.649 149.51 199.088 147.507 195.432 143.091C194.345 141.788 193.01 140.716 191.503 139.936C189.997 139.156 188.35 138.685 186.659 138.55Z" fill="#92E3A9" stroke="#263238" stroke-width="1.04742" stroke-linecap="round" stroke-linejoin="round"/>
<path d="M195.234 165.98C195.234 165.98 200.075 157.199 200.376 153.359C200.676 149.519 199.115 147.515 195.459 143.1C195.284 142.883 195.1 142.691 194.916 142.49L194.783 142.615C191.027 148.751 178.605 159.235 174.907 162.291C175.191 164.903 175.433 166.707 175.433 166.707C175.433 166.707 171.109 176.248 171.051 182.392C171.12 185.191 171.399 187.981 171.886 190.739C180.659 185.731 192.396 176.356 198.748 171.131C196.761 168.192 195.234 165.98 195.234 165.98Z" fill="#737373" stroke="#263238" stroke-width="1.04742" stroke-linecap="round" stroke-linejoin="round"/>
<path d="M184.791 131.388C185.071 133.679 185.224 135.983 185.25 138.291C185.117 140.003 185.668 143.909 188.589 145.136C191.511 146.363 193.347 144.652 193.339 142.933C193.233 141.512 192.953 140.111 192.504 138.759L192.588 134.042C192.588 134.042 187.546 130.887 184.791 131.388Z" fill="white" stroke="#263238" stroke-width="1.04742" stroke-linecap="round" stroke-linejoin="round"/>
<path d="M182.171 128.324C182.171 128.324 180.026 126.438 179.959 129.159C179.893 131.88 182.397 132.782 182.948 132.965C183.413 133.029 183.884 132.912 184.267 132.64C184.267 132.64 188.157 135.979 191.279 136.196C194.401 136.413 195.669 134.969 196.404 129.301C197.139 123.633 191.287 117.881 191.287 117.881C191.287 117.881 186.278 127.114 182.171 128.324Z" fill="white" stroke="#263238" stroke-width="1.04742" stroke-linecap="round" stroke-linejoin="round"/>
<path d="M134.427 181.523C134.399 180.556 134.557 179.592 134.894 178.685C135.412 177.55 138.233 176.898 138.86 176.681C139.486 176.464 139.803 176.681 139.619 177.274C139.473 177.593 139.264 177.878 139.004 178.114C138.745 178.349 138.44 178.529 138.108 178.643C137.677 178.747 137.288 178.983 136.998 179.319C136.839 179.586 136.94 181.298 136.163 182.024C135.387 182.75 134.168 182.55 134.427 181.523Z" fill="white" stroke="#263238" stroke-width="1.04742" stroke-linecap="round" stroke-linejoin="round"/>
<path d="M198.405 156.422C198.405 156.422 188.388 155.111 183.972 162.106C179.556 169.102 171.3 193.577 155.999 197.517C140.698 201.457 136.324 169.97 127.142 170.846C118.394 171.681 112.283 170.846 107.033 180.463C104.228 185.613 90.2038 241.851 83.5758 242.427C62.4648 244.271 48.875 243.069 48.875 243.069" stroke="#263238" stroke-width="3.14226" stroke-linecap="round" stroke-linejoin="round"/>
<path d="M107.474 133.508C107.474 133.508 105.162 132.581 102.074 134.426C98.985 136.271 90.6708 156.472 91.2885 158.634C91.9062 160.796 100.688 164.803 105.621 166.188C110.555 167.574 119.495 169.277 119.495 169.277C119.495 169.277 122.266 173.593 123.193 173.743C124.541 173.725 125.883 173.571 127.2 173.284C127.2 173.284 128.869 174.669 129.512 173.125C130.155 171.581 128.894 169.586 127.509 168.041C126.123 166.497 120.263 165.729 120.263 165.729L104.377 154.777L111.056 142.448" fill="#263238"/>
<path d="M107.474 133.508C107.474 133.508 105.162 132.581 102.074 134.426C98.985 136.271 90.6708 156.472 91.2885 158.634C91.9062 160.796 100.688 164.803 105.621 166.188C110.555 167.574 119.495 169.277 119.495 169.277C119.495 169.277 122.266 173.593 123.193 173.743C124.541 173.725 125.883 173.571 127.2 173.284C127.2 173.284 128.869 174.669 129.512 173.125C130.155 171.581 128.894 169.586 127.509 168.041C126.123 166.497 120.263 165.729 120.263 165.729L104.377 154.777L111.056 142.448" stroke="#263238" stroke-width="1.04742" stroke-linecap="round" stroke-linejoin="round"/>
<path d="M123.193 173.733C124.54 173.715 125.883 173.561 127.199 173.274C127.199 173.274 128.869 174.66 129.512 173.115C130.155 171.571 128.894 169.576 127.508 168.032C126.123 166.487 120.263 165.719 120.263 165.719L104.377 154.776L106.748 150.36C100.813 146.662 96.8728 146.937 94.7441 147.68C92.6155 152.789 90.9961 157.631 91.2799 158.624C91.8976 160.786 100.679 164.793 105.613 166.178C110.546 167.564 119.486 169.267 119.486 169.267C119.486 169.267 122.266 173.583 123.193 173.733Z" fill="white" stroke="#263238" stroke-width="1.04742" stroke-linecap="round" stroke-linejoin="round"/>
<path d="M222.486 156.765C221.81 149.478 218.312 143.492 214.138 141.113L214.005 139.627L203.103 140.637C196.967 141.205 192.735 149.628 193.645 159.445C194.555 169.261 200.265 176.749 206.4 176.14L217.302 175.13L217.16 173.644C220.833 170.572 223.162 164.052 222.486 156.765Z" fill="#263238" stroke="#263238" stroke-width="1.04742" stroke-linecap="round" stroke-linejoin="round"/>
<path d="M227.418 156.329C226.709 148.674 223.244 142.372 218.829 139.868L218.678 138.307L214.012 138.741C207.568 139.342 203.118 148.182 204.07 158.499C205.022 168.817 211.032 176.689 217.476 176.088L222.143 175.654L222.001 174.093C225.857 170.804 228.128 163.959 227.418 156.329Z" fill="white" stroke="#263238" stroke-width="1.04742" stroke-linecap="round" stroke-linejoin="round"/>
<path d="M232.098 155.871C233.058 166.188 228.608 175.029 222.156 175.63C215.703 176.231 209.701 168.35 208.724 158.041C207.748 147.732 212.214 138.842 218.658 138.283C225.102 137.723 231.129 145.562 232.098 155.871Z" fill="white" stroke="#263238" stroke-width="1.04742" stroke-linecap="round" stroke-linejoin="round"/>
<path d="M237.104 149.843L218.998 151.512C218.744 151.536 218.488 151.51 218.244 151.435C218.001 151.36 217.774 151.237 217.578 151.075C217.382 150.912 217.22 150.712 217.101 150.486C216.982 150.26 216.909 150.013 216.886 149.759C216.862 149.505 216.888 149.249 216.963 149.006C217.039 148.762 217.161 148.535 217.324 148.339C217.487 148.143 217.687 147.981 217.913 147.862C218.138 147.743 218.385 147.67 218.639 147.647L236.745 145.978C236.999 145.954 237.255 145.98 237.499 146.055C237.742 146.13 237.969 146.253 238.165 146.416C238.361 146.579 238.523 146.779 238.642 147.004C238.761 147.23 238.834 147.477 238.857 147.731C238.881 147.985 238.855 148.241 238.78 148.485C238.705 148.728 238.582 148.955 238.419 149.151C238.256 149.347 238.056 149.509 237.831 149.628C237.605 149.747 237.358 149.82 237.104 149.843Z" fill="#737373" stroke="#263238" stroke-width="1.04742" stroke-linecap="round" stroke-linejoin="round"/>
<path d="M238.445 164.193L220.339 165.863C220.085 165.887 219.829 165.86 219.586 165.785C219.342 165.71 219.115 165.588 218.919 165.425C218.723 165.262 218.561 165.062 218.442 164.836C218.323 164.61 218.25 164.363 218.227 164.11C218.203 163.856 218.23 163.6 218.305 163.356C218.38 163.112 218.502 162.886 218.665 162.689C218.828 162.493 219.028 162.331 219.254 162.212C219.48 162.094 219.726 162.021 219.98 161.998L238.086 160.328C238.598 160.284 239.107 160.443 239.502 160.771C239.897 161.099 240.147 161.57 240.198 162.081C240.222 162.335 240.196 162.591 240.121 162.835C240.046 163.078 239.923 163.305 239.76 163.501C239.598 163.697 239.398 163.86 239.172 163.978C238.946 164.097 238.699 164.17 238.445 164.193Z" fill="#737373" stroke="#263238" stroke-width="1.04742" stroke-linecap="round" stroke-linejoin="round"/>
<path d="M180.4 139.91C180.4 139.91 176.042 140.745 173.981 143.249C171.919 145.753 167.687 165.078 168.663 167.299C169.64 169.519 185.292 172.307 190.125 172.708C194.011 172.861 197.904 172.688 201.761 172.19C201.761 172.19 205.935 172.082 207.079 171.89C208.222 171.698 210.326 170.571 210.359 170.145C210.393 169.719 210.184 168.701 208.623 168.576C207.062 168.451 203.715 167.332 203.289 167.299C204.292 167.035 205.309 166.828 206.336 166.681C206.336 166.681 206.553 165.846 204.833 165.846C203.114 165.846 201.553 165.729 200.901 166.681C200.436 167.422 200.039 168.205 199.716 169.018C199.716 169.018 190.075 169.694 184.841 167.14C179.607 164.586 177.954 163.734 177.954 163.734L181.71 148.708" fill="#92E3A9"/>
<path d="M180.4 139.91C180.4 139.91 176.042 140.745 173.981 143.249C171.919 145.753 167.687 165.078 168.663 167.299C169.64 169.519 185.292 172.307 190.125 172.708C194.011 172.861 197.904 172.688 201.761 172.19C201.761 172.19 205.935 172.082 207.079 171.89C208.222 171.698 210.326 170.571 210.359 170.145C210.393 169.719 210.184 168.701 208.623 168.576C207.062 168.451 203.715 167.332 203.289 167.299C204.292 167.035 205.309 166.828 206.336 166.681C206.336 166.681 206.553 165.846 204.833 165.846C203.114 165.846 201.553 165.729 200.901 166.681C200.436 167.422 200.039 168.205 199.716 169.018C199.716 169.018 190.075 169.694 184.841 167.14C179.607 164.586 177.954 163.734 177.954 163.734L181.71 148.708" stroke="#263238" stroke-width="1.04742" stroke-linecap="round" stroke-linejoin="round"/>
<path d="M207.054 171.915C208.214 171.723 210.301 170.596 210.335 170.17C210.368 169.744 210.159 168.726 208.598 168.601C207.037 168.476 203.69 167.357 203.264 167.324C204.267 167.06 205.285 166.854 206.311 166.706C206.311 166.706 206.528 165.871 204.809 165.871C203.089 165.871 201.528 165.754 200.877 166.706C200.411 167.447 200.014 168.23 199.691 169.043C199.691 169.043 190.05 169.719 184.816 167.165C179.582 164.611 177.929 163.759 177.929 163.759L180.217 154.577C177.239 153.352 174.097 152.572 170.892 152.265C169.331 158.559 168.054 165.971 168.639 167.29C169.607 169.511 185.267 172.299 190.1 172.699C193.987 172.853 197.879 172.68 201.737 172.182C201.737 172.182 205.919 172.107 207.054 171.915Z" fill="white" stroke="#263238" stroke-width="1.04742" stroke-linecap="round" stroke-linejoin="round"/>
<path d="M136.548 179.902C136.548 179.902 133.326 182.315 133.818 183.909C134.311 185.503 136.999 182.239 137.667 181.279C138.334 180.319 137.808 178.867 136.548 179.902Z" fill="white" stroke="#263238" stroke-width="1.04742" stroke-linecap="round" stroke-linejoin="round"/>
<path d="M137.183 182.066C137.183 182.066 133.969 184.478 134.453 186.073C134.938 187.667 137.642 184.403 138.302 183.443C138.961 182.483 138.444 181.014 137.183 182.066Z" fill="white" stroke="#263238" stroke-width="1.04742" stroke-linecap="round" stroke-linejoin="round"/>
<path d="M138.711 183.468C138.711 183.468 135.497 185.881 135.989 187.475C136.482 189.069 139.17 185.805 139.838 184.846C140.505 183.886 139.979 182.416 138.711 183.468Z" fill="white" stroke="#263238" stroke-width="1.04742" stroke-linecap="round" stroke-linejoin="round"/>
<path d="M139.972 184.603C139.972 184.603 137.192 186.389 137.659 187.708C138.127 189.027 140.422 186.531 140.998 185.763C141.574 184.995 141.107 183.76 139.972 184.603Z" fill="white" stroke="#263238" stroke-width="1.04742" stroke-linecap="round" stroke-linejoin="round"/>
</svg>
