<svg width="240" height="180" viewBox="0 0 240 180" fill="none" xmlns="http://www.w3.org/2000/svg">
<path d="M159.582 48.8959L159.445 48.4306C160.798 48.0334 161.529 47.8047 161.53 47.8047L161.673 48.267C161.673 48.267 160.941 48.4968 159.582 48.8959Z" fill="#B3B3B3"/>
<path d="M210.544 169.081C210.476 168.262 210.394 167.44 210.301 166.636C210.228 166.005 210.146 165.377 210.055 164.753L210.535 164.683C210.627 165.313 210.71 165.945 210.783 166.58C210.879 167.389 210.959 168.216 211.028 169.04L210.544 169.081ZM209.279 160.471C208.974 159.06 208.613 157.641 208.212 156.254L208.679 156.119C209.085 157.517 209.446 158.947 209.754 160.368L209.279 160.471ZM206.857 152.119C206.361 150.765 205.809 149.408 205.221 148.086L205.665 147.889C206.258 149.221 206.813 150.587 207.313 151.952L206.857 152.119ZM203.313 144.175C202.637 142.901 201.907 141.632 201.143 140.402L201.555 140.146C202.324 141.385 203.06 142.667 203.741 143.948L203.313 144.175ZM198.722 136.782C197.879 135.607 196.984 134.448 196.064 133.333L196.438 133.024C197.365 134.148 198.266 135.317 199.117 136.499L198.722 136.782ZM193.181 130.069C192.189 129.018 191.148 127.987 190.086 127.002L190.416 126.647C191.485 127.638 192.534 128.678 193.533 129.736L193.181 130.069ZM186.798 124.146C185.676 123.236 184.508 122.349 183.326 121.512L183.607 121.116C184.798 121.96 185.974 122.853 187.104 123.77L186.798 124.146ZM179.69 119.111C178.458 118.354 177.184 117.627 175.904 116.952L176.13 116.524C177.419 117.204 178.701 117.936 179.944 118.699L179.69 119.111ZM171.985 115.044C170.665 114.454 169.307 113.898 167.949 113.394L168.119 112.939C169.487 113.448 170.854 114.007 172.183 114.601L171.985 115.044ZM163.815 112.009C163.352 111.87 162.886 111.737 162.418 111.607C161.472 111.346 160.536 111.078 159.608 110.802L159.747 110.337C160.67 110.612 161.603 110.879 162.545 111.14C163.016 111.27 163.485 111.405 163.952 111.545L163.815 112.009ZM155.431 109.488C154.046 109.03 152.655 108.545 151.295 108.048L151.462 107.593C152.816 108.089 154.204 108.571 155.584 109.028L155.431 109.488ZM147.206 106.479C145.854 105.936 144.496 105.364 143.169 104.78L143.365 104.336C144.687 104.918 146.04 105.488 147.387 106.029L147.206 106.479ZM139.19 102.949C137.88 102.32 136.562 101.66 135.274 100.987L135.498 100.559C136.784 101.229 138.095 101.887 139.4 102.514L139.19 102.949ZM131.429 98.8952C130.162 98.1784 128.892 97.431 127.654 96.6733L127.907 96.26C129.14 97.0139 130.405 97.7593 131.669 98.4733L131.429 98.8952ZM123.958 94.3249C122.743 93.5243 121.529 92.6914 120.343 91.8514L120.624 91.4566C121.804 92.2943 123.016 93.1215 124.225 93.9211L123.958 94.3249ZM116.815 89.2547C115.662 88.3761 114.505 87.4629 113.377 86.541L113.684 86.1657C114.809 87.0852 115.961 87.9942 117.109 88.8699L116.815 89.2547ZM110.031 83.7126C108.936 82.756 107.844 81.7676 106.782 80.7753L107.116 80.4209C108.174 81.4093 109.263 82.3945 110.354 83.3473L110.031 83.7126ZM103.631 77.7343C102.605 76.713 101.578 75.6566 100.577 74.5949L100.93 74.2618C101.93 75.3207 102.951 76.3734 103.973 77.3913L103.631 77.7343ZM97.6218 71.3603C96.6609 70.2757 95.6999 69.1589 94.7647 68.0396L95.1376 67.7289C96.0681 68.8444 97.0261 69.9584 97.9842 71.0387L97.6218 71.3603ZM92.008 64.6375C91.1166 63.5054 90.2214 62.3347 89.3462 61.1598L89.7357 60.8707C90.6081 62.0422 91.5009 63.2096 92.3895 64.3384L92.008 64.6375ZM82.05 62.0821L82.0442 61.5974C83.4661 61.5808 84.9361 61.5432 86.4137 61.4871L86.4323 61.9718C84.9471 62.028 83.4738 62.0655 82.0452 62.0821H82.05ZM77.6666 62.0708C76.178 62.0446 74.7042 61.9947 73.2857 61.9214L73.3104 61.4371C74.7242 61.5099 76.1928 61.5599 77.6757 61.5856L77.6666 62.0708ZM90.8095 61.7516L90.7794 61.2683C92.208 61.1803 93.6747 61.0732 95.1433 60.952L95.1837 61.4348C93.708 61.5571 92.2357 61.6641 90.8071 61.7516H90.8095ZM68.91 61.6146C67.4219 61.4805 65.9547 61.3154 64.5504 61.1251L64.6161 60.6442C66.0132 60.8345 67.4733 60.9982 68.9533 61.1318L68.91 61.6146ZM99.5476 61.03L99.5 60.5477C100.92 60.4021 102.382 60.2394 103.845 60.0634L103.903 60.5453C102.432 60.7213 100.967 60.8844 99.5447 61.03H99.5476ZM60.2195 60.4225C58.7461 60.1428 57.3042 59.8227 55.9338 59.4712L56.0547 59.0013C57.4152 59.3509 58.8466 59.6671 60.3095 59.9468L60.2195 60.4225ZM108.244 59.9859L108.178 59.5054C109.602 59.3104 111.059 59.1002 112.507 58.8799L112.58 59.359C111.126 59.5802 109.667 59.7913 108.24 59.9863L108.244 59.9859ZM116.902 58.6716L116.822 58.193C118.276 57.951 119.712 57.7016 121.133 57.4448L121.219 57.9204C119.799 58.1767 118.36 58.4271 116.902 58.6716ZM51.7185 58.224C50.2899 57.7388 48.9133 57.2003 47.6233 56.6243L47.8218 56.182C49.0966 56.7528 50.4594 57.285 51.8732 57.7654L51.7185 58.224ZM86.7743 57.6142C85.9452 56.4374 85.1118 55.222 84.298 54.0024L84.7018 53.7335C85.5147 54.9499 86.3452 56.1595 87.1723 57.3349L86.7743 57.6142ZM125.525 57.1175L125.433 56.6418C126.889 56.3602 128.319 56.0749 129.724 55.7857L129.822 56.2614C128.417 56.5484 126.985 56.8331 125.526 57.1157L125.525 57.1175ZM134.107 55.3528L134.004 54.8771C135.467 54.56 136.891 54.2418 138.274 53.9225L138.382 54.3948C137.001 54.7122 135.576 55.0309 134.109 55.3509L134.107 55.3528ZM43.7147 54.6107C42.4492 53.8652 41.2361 53.0344 40.0838 52.124L40.3861 51.7434C41.5211 52.6403 42.7161 53.4586 43.9628 54.1926L43.7147 54.6107ZM142.647 53.3935L142.533 52.9226C144.018 52.5649 145.434 52.2152 146.781 51.8737L146.9 52.3437C145.555 52.6819 144.135 53.0334 142.649 53.3915L142.647 53.3935ZM151.142 51.2462L151.018 50.7778C152.579 50.3644 153.994 49.9796 155.243 49.6324L155.372 50.0994C154.123 50.4424 152.707 50.8301 151.143 51.2439L151.142 51.2462ZM81.9071 50.3344C81.139 49.1257 80.3628 47.8737 79.599 46.6132L80.0138 46.3621C80.7757 47.6198 81.5504 48.8694 82.3166 50.0724L81.9071 50.3344ZM36.8566 49.1267C35.8632 48.042 34.9657 46.8733 34.1742 45.6338L34.5837 45.3736C35.3602 46.589 36.2406 47.7349 37.2152 48.7984L36.8566 49.1267ZM77.3676 42.8449C76.6576 41.621 75.9299 40.3405 75.2037 39.0395L75.628 38.8017C76.3528 40.1017 77.0785 41.3803 77.7871 42.6019L77.3676 42.8449ZM32.1414 41.727C32.0912 41.6068 32.0421 41.4859 31.9942 41.3641C31.4885 40.0912 31.0342 38.8245 30.6452 37.5991L31.108 37.4527C31.4938 38.6671 31.9437 39.9228 32.4456 41.1857C32.4933 41.3047 32.5409 41.4236 32.5885 41.5416L32.1414 41.727ZM73.1014 35.1989C72.389 33.8778 71.7033 32.5897 71.0442 31.3345L71.4728 31.109C72.1318 32.361 72.8167 33.6475 73.5275 34.9686L73.1014 35.1989ZM29.5123 33.3557C29.2023 31.9214 28.982 30.4691 28.8528 29.0075L29.3362 28.9666C29.4637 30.4081 29.6809 31.8402 29.9866 33.2548L29.5123 33.3557ZM69.0166 27.4572L68.6833 26.8199C68.0991 25.6979 67.535 24.6175 66.9909 23.5787L67.4195 23.3531C67.9646 24.3914 68.5287 25.4726 69.1118 26.5968L69.4451 27.2337L69.0166 27.4572ZM29.3085 24.6437L28.8242 24.6047C28.9355 23.1342 29.2053 21.68 29.629 20.2674L30.0933 20.4101C29.681 21.7879 29.4184 23.206 29.3099 24.6399L29.3085 24.6437ZM64.8566 19.7946C64.0556 18.5941 63.1442 17.471 62.1342 16.4397L62.4814 16.1009C63.5124 17.1537 64.4427 18.3004 65.2604 19.5259L64.8566 19.7946ZM31.868 16.503L31.4576 16.2437C32.251 14.9907 33.2269 13.8628 34.3532 12.8973L34.669 13.2659C33.5801 14.1986 32.6365 15.2883 31.8695 16.4991L31.868 16.503ZM58.8352 13.6489C57.6513 12.8225 56.3941 12.106 55.0795 11.5084L55.2804 11.0674C56.622 11.6769 57.905 12.4076 59.1133 13.2507L58.8352 13.6489ZM38.2961 10.9785L38.0971 10.5365C39.4493 9.93407 40.8718 9.50376 42.3314 9.25555L42.4142 9.73122C40.9954 9.97234 39.6124 10.3901 38.2976 10.9746L38.2961 10.9785ZM50.9957 10.0923C49.5941 9.74665 48.162 9.53851 46.72 9.47097L46.7418 8.98682C48.2154 9.05587 49.6787 9.26838 51.1109 9.62136L50.9957 10.0923Z" fill="#B3B3B3"/>
<path d="M211.299 175.016H210.814C210.814 174.283 210.804 174.207 210.785 173.49L211.27 173.477C211.29 174.2 211.299 174.279 211.299 175.016Z" fill="#B3B3B3"/>
<path d="M173.401 106.29H61.2344V174.576H173.401V106.29Z" fill="#DEDEDE"/>
<path d="M173.401 106.288H61.2344V139.433L92.6344 174.574H173.401V106.288Z" fill="#D0D0D0"/>
<path d="M165.373 92.1445H158.86C158.441 92.1445 158.102 92.4838 158.102 92.9023V120.859C158.102 121.277 158.441 121.616 158.86 121.616H165.373C165.791 121.616 166.131 121.277 166.131 120.859V92.9023C166.131 92.4838 165.791 92.1445 165.373 92.1445Z" fill="#D0D0D0"/>
<path d="M157.341 92.1445H150.829C150.41 92.1445 150.07 92.4838 150.07 92.9023V120.859C150.07 121.277 150.41 121.616 150.829 121.616H157.341C157.76 121.616 158.1 121.277 158.1 120.859V92.9023C158.1 92.4838 157.76 92.1445 157.341 92.1445Z" fill="#B3B3B3"/>
<path d="M149.314 95.6196H142.802C142.383 95.6196 142.043 95.9589 142.043 96.3774V124.334C142.043 124.752 142.383 125.092 142.802 125.092H149.314C149.733 125.092 150.072 124.752 150.072 124.334V96.3774C150.072 95.9589 149.733 95.6196 149.314 95.6196Z" fill="#D0D0D0"/>
<path d="M141.283 92.1445H134.77C134.351 92.1445 134.012 92.4838 134.012 92.9023V120.859C134.012 121.277 134.351 121.616 134.77 121.616H141.283C141.702 121.616 142.041 121.277 142.041 120.859V92.9023C142.041 92.4838 141.702 92.1445 141.283 92.1445Z" fill="#B3B3B3"/>
<path d="M123.798 96.2603H117.286C116.867 96.2603 116.527 96.5995 116.527 97.018V124.974C116.527 125.393 116.867 125.732 117.286 125.732H123.798C124.217 125.732 124.557 125.393 124.557 124.974V97.018C124.557 96.5995 124.217 96.2603 123.798 96.2603Z" fill="#B3B3B3"/>
<path d="M173.401 132.898H61.2344V136.758H173.401V132.898Z" fill="#B3B3B3"/>
<path d="M173.401 106.29H61.2353L55.1562 132.9H179.48L173.401 106.29Z" fill="#DEDEDE"/>
<path d="M166.359 45.448L171.836 36.6955C171.836 36.6955 180.531 31.0526 188.098 31.4198C195.665 31.787 208.042 29.7583 211.567 26.3486L205.372 35.6205C205.372 35.6205 195.888 40.4401 188.48 40.7326C181.073 41.0251 172.356 41.9332 166.359 45.448Z" fill="#DEDEDE"/>
</svg>
