<svg width="480" height="320" viewBox="0 0 480 320" fill="none" xmlns="http://www.w3.org/2000/svg">
<path d="M312.528 283.763C344.108 283.763 369.709 276.168 369.709 266.798C369.709 257.429 344.108 249.834 312.528 249.834C280.947 249.834 255.346 257.429 255.346 266.798C255.346 276.168 280.947 283.763 312.528 283.763Z" fill="#263238" stroke="#263238" stroke-width="1.193" stroke-linecap="round" stroke-linejoin="round"/>
<path d="M312.529 257.635C339.576 257.635 362.226 263.179 368.174 270.695C369.113 269.608 369.655 268.234 369.711 266.798C369.711 257.421 344.106 249.826 312.529 249.826C280.953 249.826 255.34 257.421 255.34 266.798C255.395 268.234 255.937 269.608 256.876 270.695C262.824 263.211 285.475 257.635 312.529 257.635Z" fill="white" stroke="#263238" stroke-width="1.193" stroke-linecap="round" stroke-linejoin="round"/>
<path d="M304.719 281.634C285.616 280.771 271.202 276.882 271.202 272.13C271.212 271.611 271.375 271.107 271.669 270.681" stroke="white" stroke-width="1.193" stroke-linecap="round" stroke-linejoin="round"/>
<path d="M349.05 267.502C352.321 268.888 354.19 270.472 354.19 272.159C354.19 277.489 335.61 281.805 312.698 281.805H311.708" stroke="white" stroke-width="1.193" stroke-linecap="round" stroke-linejoin="round"/>
<path d="M276.784 267.322C283.967 264.447 297.375 262.506 312.692 262.506C321.408 262.439 330.113 263.152 338.701 264.637" stroke="white" stroke-width="1.193" stroke-linecap="round" stroke-linejoin="round"/>
<path d="M304.171 275.47C299.332 274.797 296.093 273.569 296.093 272.16C296.093 270.029 303.53 268.303 312.725 268.303C321.919 268.303 329.317 270.029 329.317 272.16C329.317 273.989 323.852 275.518 316.518 275.914" stroke="white" stroke-width="1.193" stroke-linecap="round" stroke-linejoin="round"/>
<path d="M82.8755 198.599C107.815 191.51 160.292 177.524 189.255 176.471C228.189 175.093 293.924 203.351 334.965 208.301C376.006 213.251 403.583 211.841 403.583 211.841" stroke="#263238" stroke-width="1.193" stroke-linecap="round" stroke-linejoin="round"/>
<path d="M69 202.647C69 202.647 71.1542 201.99 74.932 200.889" stroke="#263238" stroke-width="1.193" stroke-linecap="round" stroke-linejoin="round"/>
<path d="M392.506 158.557C378.13 155.399 363.422 154.008 348.709 154.415C318.281 155.436 285.35 159.46 244.634 164.71C203.918 169.961 145.936 140.951 106.511 151.714C67.0862 162.477 70.0799 165.716 70.0799 165.716" stroke="#263238" stroke-width="1.193" stroke-linecap="round" stroke-linejoin="round"/>
<path d="M403.718 161.472C403.718 161.472 402.181 160.965 399.401 160.229" stroke="#263238" stroke-width="1.193" stroke-linecap="round" stroke-linejoin="round"/>
<path d="M330.712 86.6694C330.274 84.8894 329.252 83.3076 327.809 82.1769C326.366 81.0461 324.586 80.4316 322.752 80.4316C320.919 80.4316 319.139 81.0461 317.696 82.1769C316.253 83.3076 315.231 84.8894 314.793 86.6694H330.712Z" stroke="#263238" stroke-width="1.193" stroke-linecap="round" stroke-linejoin="round"/>
<path d="M411.137 86.6687C410.656 84.6401 409.561 82.809 408.003 81.4245C406.444 80.04 404.496 79.1693 402.425 78.931C403.076 75.4906 402.959 71.9487 402.082 68.5588C401.205 65.1689 399.589 62.0148 397.35 59.3223C395.112 56.6297 392.306 54.4652 389.133 52.9836C385.961 51.502 382.5 50.74 378.998 50.7521C373.407 50.7523 367.993 52.7193 363.706 56.3087C359.419 59.8981 356.531 64.8811 355.547 70.3855C353.299 68.6271 350.601 67.5364 347.763 67.2378C344.924 66.9392 342.059 67.4447 339.493 68.6967C336.928 69.9487 334.767 71.8967 333.256 74.3183C331.745 76.74 330.945 79.5376 330.948 82.392C330.953 83.8452 331.164 85.2905 331.574 86.6846L411.137 86.6687Z" stroke="#263238" stroke-width="1.193" stroke-linecap="round" stroke-linejoin="round"/>
<path d="M189.039 105.787C188.821 104.878 188.303 104.07 187.57 103.492C186.837 102.914 185.93 102.599 184.996 102.599C184.062 102.599 183.155 102.914 182.422 103.492C181.688 104.07 181.171 104.878 180.953 105.787H189.039Z" stroke="#263238" stroke-width="1.193" stroke-linecap="round" stroke-linejoin="round"/>
<path d="M229.863 105.789C229.623 104.753 229.069 103.817 228.276 103.109C227.484 102.4 226.492 101.953 225.436 101.829C225.817 100.231 225.869 98.5725 225.588 96.9541C225.307 95.3358 224.699 93.7917 223.802 92.4159C222.904 91.0402 221.736 89.8617 220.368 88.9523C219 88.0429 217.462 87.4217 215.846 87.1265C214.23 86.8314 212.571 86.8685 210.97 87.2356C209.369 87.6026 207.859 88.292 206.534 89.2616C205.208 90.2312 204.093 91.4608 203.258 92.8753C202.423 94.2897 201.885 95.8595 201.677 97.4888C200.535 96.5968 199.166 96.0434 197.726 95.8919C196.285 95.7403 194.831 95.9965 193.529 96.6315C192.227 97.2664 191.129 98.2543 190.362 99.4828C189.594 100.711 189.187 102.131 189.187 103.579C189.191 104.319 189.297 105.055 189.504 105.765L229.863 105.789Z" stroke="#263238" stroke-width="1.193" stroke-linecap="round" stroke-linejoin="round"/>
<path d="M225.755 118.571C225.618 117.997 225.292 117.486 224.829 117.121C224.367 116.755 223.794 116.557 223.204 116.557C222.615 116.557 222.042 116.755 221.58 117.121C221.117 117.486 220.791 117.997 220.654 118.571H225.755Z" stroke="#263238" stroke-width="1.193" stroke-linecap="round" stroke-linejoin="round"/>
<path d="M251.527 118.57C251.373 117.919 251.022 117.331 250.521 116.888C250.021 116.444 249.396 116.166 248.731 116.091C248.817 115.628 248.86 115.159 248.858 114.689C248.834 112.8 248.111 110.987 246.828 109.6C245.545 108.213 243.794 107.351 241.912 107.181C240.031 107.01 238.153 107.543 236.642 108.677C235.131 109.811 234.093 111.465 233.731 113.319C233.01 112.756 232.146 112.408 231.237 112.312C230.327 112.217 229.41 112.38 228.588 112.781C227.767 113.182 227.074 113.806 226.59 114.582C226.106 115.358 225.85 116.254 225.851 117.168C225.851 117.634 225.918 118.098 226.049 118.546L251.527 118.57Z" stroke="#263238" stroke-width="1.193" stroke-linecap="round" stroke-linejoin="round"/>
<path d="M170.888 209.808C170.609 209.812 170.335 209.738 170.096 209.594C169.75 209.381 169.499 209.042 169.396 208.648C169.292 208.254 169.345 207.836 169.542 207.48C169.93 206.799 267.851 100.015 312.654 60.8592C312.81 60.7336 313.008 60.672 313.208 60.6867C313.408 60.7014 313.595 60.7913 313.731 60.9384C313.861 61.0956 313.925 61.2971 313.911 61.5008C313.896 61.7044 313.803 61.8945 313.652 62.0313C269.071 101.021 172.599 208.359 172.211 209.032C172.079 209.267 171.887 209.463 171.654 209.599C171.422 209.735 171.157 209.808 170.888 209.808Z" fill="#263238"/>
<path d="M176.296 188.557C176.296 188.557 181.151 183.377 184.066 183.377C186.98 183.377 192.485 188.232 192.16 190.822C191.835 193.412 186.98 191.147 186.98 191.147C186.98 191.147 182.442 197.301 177.912 196.326C173.382 195.352 176.296 188.557 176.296 188.557Z" fill="#92E3A9" stroke="#263238" stroke-width="1.193" stroke-linecap="round" stroke-linejoin="round"/>
<path d="M187.002 191.131C187.002 191.131 189.972 193.19 190.234 194.639C190.495 196.089 186.939 200.183 182.987 201.102C179.035 202.021 176.92 199.779 178.108 197.673C179.296 195.566 184.009 191.321 187.002 191.131Z" fill="#92E3A9" stroke="#263238" stroke-width="1.193" stroke-linecap="round" stroke-linejoin="round"/>
<path d="M308.97 172.368V65.2202C308.97 65.2202 306.808 72.9738 306.808 73.5361" stroke="#263238" stroke-width="1.193" stroke-linecap="round" stroke-linejoin="round"/>
<path d="M353.656 178.017H271.496V243.847H353.656V178.017Z" fill="#92E3A9" stroke="#263238" stroke-width="1.193" stroke-linecap="round" stroke-linejoin="round"/>
<path d="M310.143 177.739V173.969C310.143 173.719 310.044 173.479 309.867 173.302C309.69 173.126 309.451 173.026 309.201 173.026C308.951 173.026 308.711 173.126 308.534 173.302C308.358 173.479 308.258 173.719 308.258 173.969V177.739H310.143Z" fill="#263238"/>
<path d="M317.682 168.568V168.758C317.605 168.614 317.491 168.493 317.352 168.408C317.213 168.323 317.053 168.277 316.89 168.275C316.638 168.275 316.396 168.375 316.218 168.553C316.039 168.731 315.939 168.973 315.939 169.225V179.291C315.939 180.061 315.634 180.799 315.091 181.344C314.547 181.889 313.81 182.196 313.041 182.198C312.642 182.199 312.248 182.115 311.884 181.953C311.674 182.266 311.583 182.643 311.626 183.018C311.67 183.393 311.846 183.739 312.122 183.996C312.425 184.053 312.732 184.082 313.041 184.083C313.67 184.083 314.293 183.959 314.874 183.718C315.456 183.477 315.984 183.124 316.429 182.68C316.874 182.235 317.227 181.706 317.467 181.125C317.708 180.544 317.832 179.921 317.832 179.291V174.627H320.002L317.682 168.568Z" fill="#263238"/>
<path d="M309.05 64.2157C309.05 64.2157 310.729 58.252 309.24 58.8064C307.751 59.3608 309.05 64.2157 309.05 64.2157Z" stroke="#263238" stroke-width="1.193" stroke-linecap="round" stroke-linejoin="round"/>
<path d="M309.052 64.2156C309.052 64.2156 302.716 61.9743 303.278 64.0255C303.841 66.0768 309.052 64.2156 309.052 64.2156Z" stroke="#263238" stroke-width="1.193" stroke-linecap="round" stroke-linejoin="round"/>
<path d="M172.427 116.194C172.427 116.194 164.61 111.814 149.277 114.008C133.944 116.202 131.022 128.842 133.525 141.981C136.027 155.12 150.528 166.248 152.722 165.313C154.916 164.379 152.097 134.964 157.102 129.333C162.107 123.702 178.375 124.645 179.278 120.265C180.18 115.885 172.427 116.194 172.427 116.194Z" fill="#263238" stroke="#263238" stroke-width="1.193" stroke-linecap="round" stroke-linejoin="round"/>
<path d="M145.173 123.994L146.757 134.345C146.757 134.345 136.937 161.154 138.529 164.876C140.12 168.598 154.978 169.913 154.978 169.913C154.978 169.913 179.134 172.835 186.301 169.913C193.469 166.991 189.754 158.5 188.954 156.117C188.154 153.733 183.648 134.614 183.648 134.614C183.648 134.614 185.232 130.1 185.232 127.716C185.232 125.332 184.963 118.687 183.902 117.095C182.84 115.503 164.26 113.642 156.031 114.973C147.803 116.303 144.112 118.426 145.173 123.994Z" fill="#757575" stroke="#263238" stroke-width="1.193" stroke-linecap="round" stroke-linejoin="round"/>
<path d="M149.428 135.946C149.428 135.946 149.158 159.033 150.489 163.547C151.819 168.061 157.126 173.368 168.269 172.037C179.412 170.707 180.481 160.094 180.481 160.094L179.689 135.416L149.428 135.946Z" fill="white" stroke="#263238" stroke-width="1.193" stroke-linecap="round" stroke-linejoin="round"/>
<path d="M168.534 152.529C168.536 152.924 168.42 153.311 168.202 153.64C167.983 153.969 167.672 154.226 167.308 154.378C166.943 154.531 166.541 154.571 166.154 154.495C165.766 154.419 165.41 154.23 165.13 153.951C164.85 153.672 164.659 153.316 164.581 152.929C164.504 152.542 164.543 152.14 164.694 151.775C164.844 151.41 165.1 151.098 165.429 150.878C165.757 150.658 166.143 150.541 166.538 150.541C166.8 150.54 167.059 150.591 167.301 150.69C167.544 150.79 167.764 150.936 167.949 151.12C168.134 151.305 168.282 151.525 168.382 151.766C168.482 152.008 168.534 152.267 168.534 152.529Z" stroke="#263238" stroke-width="1.193" stroke-miterlimit="10"/>
<path d="M168.268 160.895C168.268 161.159 168.19 161.416 168.043 161.635C167.897 161.854 167.688 162.025 167.445 162.125C167.201 162.225 166.933 162.251 166.675 162.199C166.417 162.147 166.18 162.02 165.994 161.833C165.808 161.646 165.682 161.408 165.632 161.15C165.581 160.891 165.609 160.623 165.71 160.38C165.812 160.137 165.984 159.93 166.204 159.785C166.424 159.64 166.682 159.563 166.945 159.564C167.12 159.564 167.292 159.599 167.453 159.666C167.614 159.733 167.761 159.831 167.883 159.955C168.006 160.078 168.104 160.225 168.17 160.386C168.236 160.548 168.269 160.721 168.268 160.895Z" fill="#263238"/>
<path d="M160.253 144.016C161.1 144.934 161.393 146.035 160.918 146.487C160.443 146.938 159.334 146.558 158.503 145.647C157.671 144.736 157.354 143.636 157.837 143.184C158.32 142.733 159.405 143.105 160.253 144.016Z" fill="#263238"/>
<path d="M171.03 144.016C170.183 144.934 169.882 146.035 170.365 146.487C170.848 146.938 171.949 146.558 172.741 145.647C173.533 144.736 173.889 143.636 173.406 143.184C172.923 142.733 171.878 143.105 171.03 144.016Z" fill="#263238"/>
<path d="M154.579 140.887C155.173 140.009 156.028 139.34 157.022 138.974C158.017 138.607 159.101 138.562 160.123 138.844" stroke="#263238" stroke-width="1.193" stroke-linecap="round" stroke-linejoin="round"/>
<path d="M170.612 139.137C170.612 139.137 174.398 137.973 175.57 141.18" stroke="#263238" stroke-width="1.193" stroke-linecap="round" stroke-linejoin="round"/>
<path d="M183.393 287.254C183.393 287.254 187.567 284.752 189.88 283.77C190.096 283.67 190.318 283.583 190.545 283.508C192.588 282.827 198.378 283.168 203.819 279.762C209.26 276.357 206.543 272.27 202.456 271.248C198.37 270.227 193.951 268.872 193.951 268.872L192.929 252.866C192.929 252.866 180.669 256.272 176.582 257.975C172.496 259.677 174.879 283.849 175.22 285.892C175.561 287.935 175.561 289.298 183.393 287.254Z" fill="#263238" stroke="#263238" stroke-width="1.193" stroke-linecap="round" stroke-linejoin="round"/>
<path d="M197.018 279.764C189.89 281.126 189.89 282.489 182.034 283.851C179.733 284.31 177.386 284.502 175.041 284.421C175.12 285.15 175.183 285.665 175.223 285.894C175.563 287.938 175.563 289.3 183.396 287.256C183.396 287.256 187.57 284.754 189.882 283.772C190.099 283.672 190.321 283.585 190.548 283.51C192.591 282.829 198.38 283.17 203.821 279.764C205.572 278.679 206.467 277.515 206.76 276.406C203.667 277.932 200.394 279.061 197.018 279.764Z" fill="white" stroke="#263238" stroke-width="1.193" stroke-linecap="round" stroke-linejoin="round"/>
<path d="M199.852 271.042C199.852 271.042 199.59 289.623 199.06 293.598C198.529 297.574 199.321 302.627 205.396 302.627C211.47 302.627 223.445 298.667 227.69 297.875C231.935 297.083 238.841 295.214 241.756 288.585C244.67 281.956 226.898 282.74 226.898 282.74L227.959 269.205C227.959 269.205 209.672 272.896 199.852 271.042Z" fill="#263238" stroke="#263238" stroke-width="1.193" stroke-linecap="round" stroke-linejoin="round"/>
<path d="M241.785 288.561C242.11 287.917 242.189 287.177 242.007 286.479C240.187 288.948 237.721 290.867 234.879 292.022C228.543 294.676 216.56 297.566 207.539 298.929C203.413 299.53 200.8 298.857 199.16 297.954C199.746 300.528 201.465 302.643 205.417 302.643C211.523 302.643 223.466 298.683 227.711 297.891C231.956 297.099 238.87 295.19 241.785 288.561Z" fill="white" stroke="#263238" stroke-width="1.193" stroke-linecap="round" stroke-linejoin="round"/>
<path d="M226.928 282.718C226.928 282.718 228.25 287.232 224.552 290.155" stroke="white" stroke-width="1.193" stroke-linecap="round" stroke-linejoin="round"/>
<path d="M197.998 261.222C197.998 261.222 197.586 269.292 198.037 270.908C199.732 277.038 200.271 275.604 213.014 275.335C225.757 275.066 230.905 269.981 232.235 266.797C233.566 263.614 232.235 256.708 231.705 254.316C231.174 251.924 226.953 251.148 225.329 251.401C223.705 251.655 198.79 258.569 197.998 261.222Z" fill="#757575" stroke="#263238" stroke-width="1.193" stroke-linecap="round" stroke-linejoin="round"/>
<path d="M110.406 281.395V299.23C110.412 299.928 110.608 300.611 110.974 301.206C111.339 301.8 111.86 302.284 112.481 302.604L141.151 317.406C141.661 317.671 142.224 317.818 142.799 317.834C143.374 317.851 143.945 317.737 144.469 317.501L186.706 301.4C187.38 301.098 187.952 300.608 188.354 299.988C188.756 299.368 188.97 298.646 188.971 297.908V276.35L140.66 290.946L110.406 281.395Z" fill="#92E3A9"/>
<mask id="mask0_5082_4508" style="mask-type:luminance" maskUnits="userSpaceOnUse" x="110" y="276" width="79" height="42">
<path d="M110.404 281.395V299.23C110.41 299.928 110.607 300.611 110.972 301.206C111.338 301.8 111.859 302.284 112.479 302.604L141.149 317.406C141.659 317.671 142.223 317.818 142.798 317.834C143.372 317.851 143.943 317.737 144.468 317.501L186.704 301.4C187.378 301.098 187.95 300.608 188.352 299.988C188.754 299.368 188.968 298.646 188.969 297.908V276.35L140.658 290.946L110.404 281.395Z" fill="white"/>
</mask>
<g mask="url(#mask0_5082_4508)">
<path opacity="0.18" d="M142.789 290.303L140.666 290.945L110.404 281.394V299.229C110.41 299.927 110.607 300.61 110.972 301.205C111.338 301.799 111.859 302.283 112.479 302.603L141.149 317.405C141.656 317.67 142.217 317.817 142.789 317.833V290.303Z" fill="black"/>
</g>
<path d="M110.406 281.395V299.23C110.412 299.928 110.608 300.611 110.974 301.206C111.339 301.8 111.86 302.284 112.481 302.604L141.151 317.406C141.661 317.671 142.224 317.818 142.799 317.834C143.374 317.851 143.945 317.737 144.469 317.501L186.706 301.4C187.38 301.098 187.952 300.608 188.354 299.988C188.756 299.368 188.97 298.646 188.971 297.908V276.35L140.66 290.946L110.406 281.395Z" stroke="#263238" stroke-width="1.193" stroke-linecap="round" stroke-linejoin="round"/>
<path d="M154.534 251.283L108.202 266.172C107.84 266.288 107.525 266.517 107.301 266.824C107.077 267.132 106.958 267.503 106.959 267.883V281.093C106.966 281.426 107.065 281.75 107.246 282.03C107.426 282.31 107.68 282.534 107.981 282.677L140.278 298.05C140.495 298.154 140.732 298.213 140.972 298.224C141.213 298.235 141.454 298.197 141.68 298.113L190.173 279.969C190.516 279.841 190.812 279.612 191.022 279.312C191.231 279.012 191.344 278.656 191.345 278.29L191.432 265.895C191.43 265.485 191.288 265.088 191.031 264.768C190.773 264.449 190.415 264.226 190.015 264.137L155.452 251.235C155.147 251.174 154.831 251.191 154.534 251.283Z" fill="white"/>
<mask id="mask1_5082_4508" style="mask-type:luminance" maskUnits="userSpaceOnUse" x="106" y="251" width="86" height="48">
<path d="M154.54 251.282L108.208 266.171C107.846 266.287 107.53 266.516 107.307 266.823C107.083 267.131 106.964 267.502 106.965 267.882V281.092C106.972 281.425 107.071 281.749 107.251 282.029C107.432 282.309 107.686 282.533 107.987 282.676L140.284 298.049C140.501 298.153 140.737 298.212 140.978 298.223C141.219 298.234 141.46 298.196 141.686 298.112L190.179 279.968C190.522 279.84 190.818 279.611 191.027 279.311C191.237 279.011 191.35 278.655 191.351 278.289L191.438 265.894C191.436 265.484 191.294 265.087 191.036 264.767C190.779 264.448 190.421 264.225 190.021 264.136L155.458 251.234C155.153 251.173 154.837 251.19 154.54 251.282Z" fill="white"/>
</mask>
<g mask="url(#mask1_5082_4508)">
<path d="M140.228 298.041C140.446 298.145 140.682 298.204 140.922 298.215C141.163 298.226 141.404 298.189 141.63 298.105L190.179 279.968C190.522 279.841 190.818 279.612 191.027 279.312C191.237 279.012 191.349 278.655 191.351 278.289L191.438 265.894C191.439 265.473 191.287 265.064 191.01 264.746L140.917 283.247L140.228 298.041Z" fill="#92E3A9"/>
<path opacity="0.5" d="M140.228 298.041C140.446 298.145 140.682 298.204 140.922 298.215C141.163 298.226 141.404 298.189 141.63 298.105L190.179 279.968C190.522 279.841 190.818 279.612 191.027 279.312C191.237 279.012 191.349 278.655 191.351 278.289L191.438 265.894C191.439 265.473 191.287 265.064 191.01 264.746L140.917 283.247L140.228 298.041Z" fill="white"/>
<path d="M106.965 267.842V281.052C106.972 281.385 107.071 281.709 107.251 281.989C107.432 282.269 107.686 282.493 107.987 282.636L140.284 298.048C140.499 298.152 140.734 298.212 140.973 298.223V283.246L107.02 267.533C106.99 267.634 106.971 267.737 106.965 267.842Z" fill="#92E3A9"/>
</g>
<path d="M154.534 251.283L108.202 266.172C107.84 266.288 107.525 266.517 107.301 266.824C107.077 267.132 106.958 267.503 106.959 267.883V281.093C106.966 281.426 107.065 281.75 107.246 282.03C107.426 282.31 107.68 282.534 107.981 282.677L140.278 298.05C140.495 298.154 140.732 298.213 140.972 298.224C141.213 298.235 141.454 298.197 141.68 298.113L190.173 279.969C190.516 279.841 190.812 279.612 191.022 279.312C191.231 279.012 191.344 278.656 191.345 278.29L191.432 265.895C191.43 265.485 191.288 265.088 191.031 264.768C190.773 264.449 190.415 264.226 190.015 264.137L155.452 251.235C155.147 251.174 154.831 251.191 154.534 251.283Z" stroke="#263238" stroke-width="1.193" stroke-linecap="round" stroke-linejoin="round"/>
<path d="M218.172 226.985C218.172 226.985 224.27 229.9 227.462 235.745C230.654 241.59 228.254 252.725 226.393 256.178C224.532 259.631 212.066 261.223 207.821 261.223C203.576 261.223 202.776 260.692 202.776 260.692C202.776 260.692 189.241 263.346 180.743 264.937C172.245 266.529 174.407 246.627 177.028 237.598C179.65 228.569 194.547 224.063 200.653 224.063C206.759 224.063 218.172 226.985 218.172 226.985Z" fill="#263238" stroke="#263238" stroke-width="1.193" stroke-linecap="round" stroke-linejoin="round"/>
<path d="M202.775 260.691C202.775 260.691 214.187 256.731 218.963 246.625" stroke="white" stroke-width="1.193" stroke-linecap="round" stroke-linejoin="round"/>
<path d="M213.658 254.846C217.336 253.304 220.673 251.051 223.479 248.217" stroke="white" stroke-width="1.193" stroke-linecap="round" stroke-linejoin="round"/>
<path d="M186.849 235.743C186.849 235.743 190.017 252.462 188.433 259.36C186.849 266.258 177.551 267.328 175.428 266.528C173.306 265.728 174.367 249.278 174.367 241.049C174.367 232.821 182.604 233.351 186.849 235.743Z" fill="#757575" stroke="#263238" stroke-width="1.193" stroke-linecap="round" stroke-linejoin="round"/>
<path d="M119.163 191.148C119.163 191.148 117.309 202.022 118.632 207.344C119.306 210.308 120.569 213.107 122.346 215.573C122.346 215.573 115.71 225.393 117.04 233.614C118.371 241.835 121.792 242.904 121.792 242.904C121.792 242.904 118.877 258.039 124.168 263.346C129.458 268.652 141.156 274.489 154.161 272.105C167.165 269.721 175.924 269.182 178.577 264.668C181.231 260.154 179.639 240.251 179.639 240.251C179.639 240.251 179.108 218.226 178.577 204.683C178.047 191.14 176.202 180.266 169.818 174.96C163.435 169.653 135.311 177.882 126.821 183.45C118.331 189.018 119.163 191.148 119.163 191.148Z" fill="#92E3A9"/>
<mask id="mask2_5082_4508" style="mask-type:luminance" maskUnits="userSpaceOnUse" x="116" y="173" width="65" height="100">
<path d="M119.164 191.147C119.164 191.147 117.31 202.021 118.633 207.344C119.307 210.308 120.57 213.106 122.347 215.572C122.347 215.572 115.711 225.393 117.041 233.614C118.372 241.835 121.793 242.904 121.793 242.904C121.793 242.904 118.878 258.039 124.169 263.345C129.459 268.651 141.157 274.488 154.161 272.104C167.166 269.721 175.925 269.182 178.578 264.668C181.232 260.153 179.64 240.251 179.64 240.251C179.64 240.251 179.109 218.226 178.578 204.683C178.048 191.14 176.203 180.266 169.819 174.959C163.436 169.653 135.312 177.882 126.822 183.449C118.332 189.017 119.164 191.147 119.164 191.147Z" fill="white"/>
</mask>
<g mask="url(#mask2_5082_4508)">
<path opacity="0.3" d="M121.056 191.147C121.056 191.147 119.194 202.029 120.525 207.344C121.195 210.309 122.458 213.108 124.239 215.572C124.239 215.572 117.603 225.393 118.933 233.614C120.264 241.835 123.685 242.904 123.685 242.904C123.685 242.904 120.763 258.039 126.061 263.345C131.359 268.651 143.081 274.488 156.117 272.104C169.153 269.721 177.889 269.182 180.542 264.668C183.195 260.153 181.603 240.251 181.603 240.251C181.603 240.251 181.072 218.226 180.542 204.683C180.011 191.14 178.166 180.266 171.782 174.959C165.399 169.653 137.276 177.882 128.785 183.449C120.295 189.017 121.056 191.147 121.056 191.147Z" fill="black"/>
</g>
<path d="M119.163 191.148C119.163 191.148 117.309 202.022 118.632 207.344C119.306 210.308 120.569 213.107 122.346 215.573C122.346 215.573 115.71 225.393 117.04 233.614C118.371 241.835 121.792 242.904 121.792 242.904C121.792 242.904 118.877 258.039 124.168 263.346C129.458 268.652 141.156 274.489 154.161 272.105C167.165 269.721 175.924 269.182 178.577 264.668C181.231 260.154 179.639 240.251 179.639 240.251C179.639 240.251 179.108 218.226 178.577 204.683C178.047 191.14 176.202 180.266 169.818 174.96C163.435 169.653 135.311 177.882 126.821 183.45C118.331 189.018 119.163 191.148 119.163 191.148Z" stroke="#263238" stroke-width="1.193" stroke-linecap="round" stroke-linejoin="round"/>
<path d="M122.347 215.573C126.456 218.376 131.157 220.192 136.083 220.879C141.01 221.566 146.028 221.105 150.747 219.533" stroke="#263238" stroke-width="1.193" stroke-linecap="round" stroke-linejoin="round"/>
<path d="M121.816 242.903C121.816 242.903 135.351 256.177 157.654 243.434" stroke="#263238" stroke-width="1.193" stroke-linecap="round" stroke-linejoin="round"/>
<path d="M174.633 178.143C174.633 178.143 169.596 170.445 162.69 166.2C155.784 161.955 138.012 158.771 130.845 157.441C123.677 156.11 115.979 156.649 113.856 164.569C111.734 172.489 111.995 185.802 114.118 191.639C116.24 197.476 125 200.929 131.906 196.953C138.812 192.977 157.915 177.573 164.551 176.781C171.188 175.989 174.103 181.066 174.633 178.143Z" fill="#757575"/>
<mask id="mask3_5082_4508" style="mask-type:luminance" maskUnits="userSpaceOnUse" x="112" y="156" width="63" height="43">
<path d="M174.631 178.144C174.631 178.144 169.594 170.446 162.687 166.201C155.781 161.956 138.009 158.772 130.842 157.441C123.674 156.111 115.976 156.649 113.853 164.569C111.731 172.489 111.992 185.802 114.115 191.639C116.237 197.476 124.997 200.929 131.903 196.954C138.809 192.978 157.912 177.574 164.549 176.782C171.185 175.99 174.1 181.066 174.631 178.144Z" fill="white"/>
</mask>
<g mask="url(#mask3_5082_4508)">
<path opacity="0.3" d="M159.908 176.679C163.955 174.992 153.833 178.025 153.16 177.011C152.487 175.997 160.24 170.945 161.927 170.271C163.614 169.598 152.146 171.958 152.487 170.271C152.827 168.584 163.614 168.244 156.193 166.557C148.772 164.87 124.514 160.482 119.762 158.795C119.398 158.677 119.054 158.507 118.74 158.289C117.511 158.922 116.437 159.818 115.592 160.913C114.748 162.008 114.154 163.275 113.853 164.624C111.731 172.584 111.992 185.858 114.115 191.695C115.968 196.779 122.827 200.05 129.163 198.189C132.085 195.813 134.786 192.693 139.355 189.818C148.44 184.068 155.86 178.334 159.908 176.679Z" fill="black"/>
</g>
<path d="M174.634 178.143C174.634 178.143 169.596 170.445 162.69 166.2C155.784 161.955 138.012 158.771 130.845 157.441C123.677 156.11 115.979 156.649 113.856 164.569C111.734 172.489 111.995 185.802 114.118 191.639C116.24 197.476 125 200.929 131.906 196.953C138.812 192.977 157.915 177.573 164.551 176.781C171.188 175.989 174.103 181.066 174.634 178.143Z" stroke="#263238" stroke-width="1.193" stroke-linecap="round" stroke-linejoin="round"/>
<path d="M203.304 214.24C203.304 214.24 209.41 215.032 213.386 216.616C217.362 218.2 220.023 228.029 218.431 229.351C216.839 230.674 213.679 229.09 213.679 229.09C211.183 229.968 208.604 230.589 205.981 230.943C202.774 231.228 199.321 216.101 203.304 214.24Z" fill="#92E3A9" stroke="#263238" stroke-width="1.193" stroke-linecap="round" stroke-linejoin="round"/>
<path d="M183.13 213.443C183.13 213.443 184.191 213.443 190.028 210.79C195.865 208.137 200.648 208.137 204.363 213.958C208.077 219.779 209.669 226.97 207.531 231.215C205.392 235.46 197.449 238.382 193.196 238.382C188.943 238.382 188.444 232.839 188.444 232.839C188.444 232.839 187.913 224.079 185.276 220.895C182.639 217.712 182.068 214.243 183.13 213.443Z" fill="#757575" stroke="#263238" stroke-width="1.193" stroke-linecap="round" stroke-linejoin="round"/>
<path d="M163.492 178.144C169.329 176.021 176.765 177.352 179.418 184.781C182.072 192.209 184.455 213.973 184.455 213.973C184.455 213.973 191.092 214.765 193.745 217.696C196.399 220.626 197.705 228.047 197.199 231.761C196.692 235.476 187.378 242.374 176.765 242.643C166.153 242.912 158.447 237.891 154.732 224.324C151.018 210.758 152.491 190.142 152.491 190.142C152.491 190.142 153.837 184.068 155.865 182.713" fill="#92E3A9"/>
<mask id="mask4_5082_4508" style="mask-type:luminance" maskUnits="userSpaceOnUse" x="152" y="177" width="46" height="66">
<path d="M163.492 178.145C169.329 176.023 176.765 177.353 179.418 184.782C182.072 192.211 184.455 213.975 184.455 213.975C184.455 213.975 191.092 214.767 193.745 217.697C196.399 220.627 197.705 228.048 197.199 231.763C196.692 235.477 187.378 242.375 176.765 242.645C166.153 242.914 158.447 237.893 154.732 224.326C151.018 210.759 152.491 190.144 152.491 190.144C152.491 190.144 153.837 184.069 155.865 182.715" fill="white"/>
</mask>
<g mask="url(#mask4_5082_4508)">
<path opacity="0.3" d="M197.2 231.763C197.731 228.048 196.408 220.611 193.747 217.697C193.644 217.578 193.518 217.467 193.407 217.356C193.725 219.741 193.915 222.142 193.977 224.548C194.508 240.126 172.736 237.52 168.348 226.234C165.972 220.16 165.307 193.51 158.227 191.49C154.14 190.326 152.746 193.525 152.303 196.448C152.16 204.09 152.413 215.867 154.734 224.326C158.448 237.869 166.146 242.906 176.767 242.644C187.388 242.383 196.67 235.477 197.2 231.763Z" fill="black"/>
</g>
<path d="M163.492 178.144C169.329 176.021 176.765 177.352 179.418 184.781C182.072 192.209 184.455 213.973 184.455 213.973C184.455 213.973 191.092 214.765 193.745 217.696C196.399 220.626 197.705 228.047 197.199 231.761C196.692 235.476 187.378 242.374 176.765 242.643C166.153 242.912 158.447 237.891 154.732 224.324C151.018 210.758 152.491 190.142 152.491 190.142C152.491 190.142 153.837 184.068 155.865 182.713" stroke="#263238" stroke-width="1.193" stroke-linecap="round" stroke-linejoin="round"/>
<path d="M184.456 213.972C184.456 213.972 186.531 223.642 175.871 228.948" stroke="#263238" stroke-width="1.193" stroke-linecap="round" stroke-linejoin="round"/>
<path d="M131.648 45.4083C131.648 43.2066 132.662 41.583 134.951 41.583C137.239 41.583 138.301 43.167 138.301 45.4083V53.1302C138.301 55.3319 137.279 56.9555 134.951 56.9555C132.622 56.9555 131.648 55.3715 131.648 53.1302V45.4083ZM132.638 53.2015C132.638 54.8488 133.287 56.0526 134.951 56.0526C136.614 56.0526 137.326 54.8488 137.326 53.2015V45.3449C137.326 43.7055 136.661 42.4938 134.951 42.4938C133.24 42.4938 132.638 43.7055 132.638 45.3449V53.2015Z" fill="#263238"/>
<path d="M139.875 45.4083C139.875 43.2066 140.889 41.583 143.178 41.583C145.467 41.583 146.528 43.167 146.528 45.4083V53.1302C146.528 55.3319 145.514 56.9555 143.178 56.9555C140.842 56.9555 139.875 55.3715 139.875 53.1302V45.4083ZM140.865 53.2015C140.865 54.8488 141.515 56.0526 143.178 56.0526C144.841 56.0526 145.554 54.8488 145.554 53.2015V45.3449C145.554 43.7055 144.889 42.4938 143.178 42.4938C141.467 42.4938 140.865 43.7055 140.865 45.3449V53.2015Z" fill="#263238"/>
<path d="M151.303 41.7178C153.632 41.7178 154.543 43.183 154.543 45.3847V47.032C154.543 49.408 153.434 50.6118 151.042 50.6118H149.165V56.8368H148.199V41.7178H151.303ZM151.042 49.7089C152.792 49.7089 153.545 48.9169 153.545 47.0954V45.3213C153.545 43.6819 152.982 42.6206 151.303 42.6206H149.165V49.7485L151.042 49.7089Z" fill="#263238"/>
<path d="M162.403 45.3682V45.685H161.453V45.2969C161.453 43.7129 160.851 42.4933 159.212 42.4933C157.572 42.4933 156.963 43.6813 156.963 45.2811C156.963 48.948 162.427 49.0113 162.427 53.201C162.427 55.3789 161.477 56.9787 159.164 56.9787C156.852 56.9787 155.909 55.3948 155.909 53.201V52.409H156.86V53.2485C156.86 54.8324 157.485 56.0363 159.148 56.0363C160.812 56.0363 161.437 54.8641 161.437 53.2485C161.437 49.6212 155.973 49.5578 155.973 45.3286C155.973 43.0635 156.963 41.5904 159.188 41.5667C161.413 41.5429 162.403 43.1823 162.403 45.3682Z" fill="#263238"/>
<path d="M164.889 54.936V56.8368H163.923V54.936H164.889Z" fill="#263238"/>
<path d="M167.587 54.936V56.8368H166.621V54.936H167.587Z" fill="#263238"/>
<path d="M170.291 54.936V56.8368H169.316V54.936H170.291Z" fill="#263238"/>
<path d="M134.839 63.7104C137.215 63.7104 138.078 65.1756 138.078 67.3853V69.0247C138.078 71.4007 136.977 72.6124 134.585 72.6124H132.7V78.8295H131.71V63.7104H134.839ZM134.585 71.7016C136.328 71.7016 137.088 70.9096 137.088 69.088V67.314C137.088 65.6746 136.526 64.6212 134.839 64.6212H132.7V71.7016H134.585Z" fill="#263238"/>
<path d="M140.741 75.4787L139.949 78.8288H139.039L142.341 63.686H143.79L147.156 78.8288H146.166L145.374 75.4787H140.741ZM140.892 74.6155H145.295L143.07 64.8344L140.892 74.6155Z" fill="#263238"/>
<path d="M155.144 67.3862V68.5109H154.194V67.3229C154.194 65.7389 153.568 64.4717 151.905 64.4717C150.242 64.4717 149.616 65.7072 149.616 67.3229V75.1873C149.616 76.7713 150.242 78.0147 151.905 78.0147C153.568 78.0147 154.194 76.803 154.194 75.1873V71.9243H152.158V71.0215H155.112V75.124C155.112 77.3019 154.162 78.9413 151.849 78.9413C149.537 78.9413 148.594 77.3019 148.594 75.124V67.3862C148.594 65.2083 149.545 63.5688 151.849 63.5688C154.154 63.5688 155.144 65.2241 155.144 67.3862Z" fill="#263238"/>
<path d="M161.933 70.7116V71.6145H157.807V77.9504H162.772V78.8612H156.809V63.7104H162.772V64.6212H157.807V70.7116H161.933Z" fill="#263238"/>
<path d="M168.649 78.8295H167.738V63.7104H169.037L173.544 76.4773V63.7104H174.446V78.8295H173.346L168.594 65.3657L168.649 78.8295Z" fill="#263238"/>
<path d="M176.127 67.3862C176.127 65.1845 177.141 63.5688 179.43 63.5688C181.719 63.5688 182.78 65.1528 182.78 67.3862V75.124C182.78 77.3257 181.758 78.9413 179.43 78.9413C177.102 78.9413 176.127 77.3574 176.127 75.124V67.3862ZM177.117 75.1873C177.117 76.8267 177.767 78.0385 179.43 78.0385C181.093 78.0385 181.806 76.8267 181.806 75.1873V67.3229C181.806 65.6835 181.141 64.4717 179.43 64.4717C177.719 64.4717 177.117 65.6835 177.117 67.3229V75.1873Z" fill="#263238"/>
<path d="M187.008 78.8295V64.6212H183.943V63.7104H191.071V64.6212H187.982V78.8295H187.008Z" fill="#263238"/>
<path d="M200.536 71.0759V71.9788H196.624V78.8295H195.634V63.7104H201.376V64.6212H196.624V71.0759H200.536Z" fill="#263238"/>
<path d="M202.847 67.3862C202.847 65.1845 203.86 63.5688 206.149 63.5688C208.438 63.5688 209.499 65.1528 209.499 67.3862V75.124C209.499 77.3257 208.486 78.9413 206.149 78.9413C203.813 78.9413 202.847 77.3574 202.847 75.124V67.3862ZM203.837 75.1873C203.837 76.8267 204.486 78.0385 206.149 78.0385C207.812 78.0385 208.525 76.8267 208.525 75.1873V67.3229C208.525 65.6835 207.86 64.4717 206.149 64.4717C204.439 64.4717 203.837 65.6835 203.837 67.3229V75.1873Z" fill="#263238"/>
<path d="M212.068 75.1784C212.068 76.7624 212.677 78.0533 214.341 78.0533C216.004 78.0533 216.606 76.802 216.606 75.1784V63.7104H217.532V75.1388C217.532 77.293 216.629 78.9562 214.317 78.9562C212.004 78.9562 211.078 77.293 211.078 75.1388V63.7104H212.068V75.1784Z" fill="#263238"/>
<path d="M220.146 78.8295H219.243V63.7104H220.534L225.072 76.4773V63.7104H225.982V78.8295H224.874L220.122 65.3657L220.146 78.8295Z" fill="#263238"/>
<path d="M231.011 63.7104C233.347 63.7104 234.361 65.2469 234.361 67.4724V75.0675C234.361 77.293 233.347 78.8295 231.011 78.8295H227.685V63.7104H231.011ZM231.011 77.9187C232.698 77.9187 233.387 76.7782 233.387 75.1151V67.4249C233.387 65.7617 232.674 64.6212 231.011 64.6212H228.706V77.9187H231.011Z" fill="#263238"/>
<path d="M281.255 218.759L292.034 193.312H298.489V218.759H301.284V224.136H298.489V230.971H292.675V224.136H281.255V218.759ZM292.659 218.759V204.614L286.688 218.759H292.659Z" fill="#263238"/>
<path d="M303.493 202.348C303.493 196.328 306.661 192.844 312.474 192.844C318.288 192.844 321.455 196.289 321.455 202.348V221.926C321.455 227.953 318.288 231.429 312.474 231.429C306.661 231.429 303.493 227.984 303.493 221.926V202.348ZM309.409 222.306C309.409 224.998 310.589 226.02 312.474 226.02C314.359 226.02 315.539 224.998 315.539 222.306V201.975C315.539 199.283 314.351 198.261 312.474 198.261C310.597 198.261 309.409 199.283 309.409 201.975V222.306Z" fill="#263238"/>
<path d="M323.879 218.759L334.635 193.312H341.089V218.759H343.885V224.136H341.089V230.971H335.276V224.136H323.879V218.759ZM335.276 218.759V204.614L329.312 218.759H335.276Z" fill="#263238"/>
</svg>
