<svg width="480" height="320" viewBox="0 0 480 320" fill="none" xmlns="http://www.w3.org/2000/svg">
<path d="M366.215 257.832C366.215 257.832 363.57 246.591 365.554 236.664C367.538 226.738 372.167 233.358 377.464 226.738C382.762 220.118 380.109 207.554 386.061 202.256C392.012 196.958 400.616 197.627 402.599 187.701C404.583 177.775 405.913 169.809 409.881 171.162C413.848 172.516 406.575 184.387 406.575 191.676C406.575 198.966 410.542 203.579 407.897 210.86C405.252 218.142 394.003 215.489 394.003 224.085C394.003 232.681 398.632 241.285 394.664 247.244C390.697 253.203 380.109 254.518 378.787 257.824C377.464 261.13 374.119 267.089 370.844 267.089C367.569 267.089 366.215 257.832 366.215 257.832Z" fill="#BFBFBF"/>
<path d="M364.091 257.941C364.752 255.957 363.429 238.757 357.478 235.45C351.527 232.144 344.907 233.467 341.601 227.508C338.294 221.549 338.287 218.912 334.98 218.25C331.674 217.589 315.797 214.936 317.78 218.25C319.764 221.564 331.674 216.259 331.674 222.879C331.674 229.499 330.352 240.079 334.319 242.724C338.287 245.369 348.874 244.708 348.213 250.667C347.552 256.626 345.568 258.602 348.874 260.593C352.181 262.585 361.446 271.173 362.768 264.561L364.091 257.941Z" fill="#BFBFBF"/>
<path d="M371.427 272.543C371.427 272.543 368.315 262.905 376.818 245.183C385.321 227.462 391.459 213.98 395.309 207.064" stroke="#263238" stroke-width="1.25654" stroke-miterlimit="10"/>
<path d="M364.486 274.082C364.486 274.082 363.334 269.453 359.476 256.742C355.617 244.03 351.004 240.561 344.454 236.321C337.904 232.081 337.522 225.15 336.363 223.221" stroke="#263238" stroke-width="1.25654" stroke-miterlimit="10"/>
<path d="M380.668 267.144C380.668 267.144 381.446 260.213 387.607 258.284C393.768 256.354 399.548 257.132 400.708 252.893C401.867 248.653 401.859 244.413 404.558 242.103C407.258 239.792 410.72 238.633 411.109 239.769C411.498 240.905 407.219 241.698 407.219 245.549C407.219 249.4 412.999 259.031 404.527 262.881C396.056 266.732 389.116 263.27 386.036 265.993C382.955 268.716 381.026 270.614 381.026 270.614L380.668 267.144Z" fill="#BFBFBF"/>
<path d="M379.898 274.082C379.898 274.082 382.598 264.062 389.148 261.752C395.698 259.441 402.988 264.451 406.099 259.823C409.211 255.194 406.877 250.581 406.48 247.5" stroke="#263238" stroke-width="1.25654" stroke-miterlimit="10"/>
<path d="M384.23 272.543H360.347C360.094 272.542 359.844 272.591 359.61 272.687C359.376 272.783 359.163 272.924 358.984 273.103C358.804 273.282 358.662 273.494 358.565 273.727C358.468 273.961 358.418 274.211 358.418 274.464C358.418 274.976 358.621 275.467 358.983 275.829C359.345 276.191 359.836 276.394 360.347 276.394H360.542L362.401 281.271C362.546 281.649 362.802 281.974 363.135 282.203C363.468 282.432 363.864 282.555 364.268 282.555H380.317C380.721 282.554 381.116 282.431 381.449 282.202C381.782 281.973 382.038 281.649 382.184 281.271L384.043 276.394H384.23C384.742 276.394 385.232 276.191 385.594 275.829C385.956 275.467 386.159 274.976 386.159 274.464C386.159 274.211 386.109 273.961 386.012 273.727C385.915 273.494 385.773 273.282 385.594 273.103C385.414 272.924 385.202 272.783 384.968 272.687C384.734 272.591 384.483 272.542 384.23 272.543Z" fill="#263238"/>
<path d="M392.271 162.83H278C275.968 162.83 274.32 164.478 274.32 166.51V180.964C274.32 182.996 275.968 184.643 278 184.643H392.271C394.303 184.643 395.95 182.996 395.95 180.964V166.51C395.95 164.478 394.303 162.83 392.271 162.83Z" fill="#92E3A9"/>
<path d="M283.468 169.783V179.585H282.41V169.783H283.468Z" fill="#263238"/>
<path d="M285.84 179.585H284.859V169.783H286.244L288.508 176.87V169.783H289.48V179.585H288.345L285.84 171.658V179.585Z" fill="#263238"/>
<path d="M292.309 179.585V170.81H290.504V169.814H295.21V170.81H293.406V179.616L292.309 179.585Z" fill="#263238"/>
<path d="M299.727 174.124V175.104H297.331V178.589H300.303V179.585H296.273V169.783H300.303V170.81H297.363V174.155L299.727 174.124Z" fill="#263238"/>
<path d="M303.752 169.783C305.308 169.783 305.938 170.561 305.938 172.024V172.802C305.938 173.883 305.557 174.552 304.717 174.824C305.612 175.089 305.946 175.82 305.946 176.87V178.426C305.913 178.828 305.983 179.233 306.148 179.601H305.036C304.884 179.224 304.822 178.816 304.857 178.411V176.855C304.857 175.75 304.336 175.4 303.426 175.4H302.648V179.585H301.559V169.783H303.752ZM303.472 174.404C304.336 174.404 304.857 174.124 304.857 173.058V172.117C304.857 171.238 304.538 170.779 303.721 170.779H302.64V174.404H303.472Z" fill="#263238"/>
<path d="M308.324 179.585H307.344V169.783H308.728L311 176.87V169.783H311.972V179.585H310.844L308.332 171.658L308.324 179.585Z" fill="#263238"/>
<path d="M314.471 177.609L314.097 179.585H313.086L314.961 169.783H316.517L318.391 179.585H317.302L316.921 177.609H314.471ZM314.611 176.676H316.797L315.692 171.012L314.611 176.676Z" fill="#263238"/>
<path d="M319.559 179.585V169.783H320.648V178.589H323.448V179.585H319.559Z" fill="#263238"/>
<path d="M331.247 172.134V172.367H330.212V172.048C330.212 171.169 329.878 170.648 329.092 170.648C328.306 170.648 327.972 171.169 327.972 172.033C327.972 174.234 331.262 174.444 331.262 177.198C331.262 178.684 330.547 179.657 329.045 179.657C327.544 179.657 326.852 178.684 326.852 177.198V176.646H327.871V177.261C327.871 178.14 328.236 178.661 329.022 178.661C329.808 178.661 330.166 178.14 330.166 177.261C330.166 175.075 326.89 174.865 326.89 172.103C326.89 170.594 327.591 169.652 329.061 169.652C330.531 169.652 331.247 170.648 331.247 172.134Z" fill="#263238"/>
<path d="M335.977 174.124V175.104H333.589V178.589H336.53V179.585H332.492V169.783H336.53V170.81H333.589V174.155L335.977 174.124Z" fill="#263238"/>
<path d="M339.979 169.783C341.535 169.783 342.165 170.561 342.165 172.024V172.802C342.165 173.883 341.784 174.552 340.944 174.824C341.838 175.089 342.18 175.82 342.18 176.87V178.426C342.145 178.828 342.212 179.232 342.375 179.601H341.27C341.111 179.226 341.046 178.817 341.084 178.411V176.855C341.084 175.75 340.57 175.4 339.66 175.4H338.882V179.585H337.785V169.783H339.979ZM339.699 174.404C340.57 174.404 341.084 174.124 341.084 173.058V172.117C341.084 171.238 340.765 170.779 339.948 170.779H338.89V174.404H339.699Z" fill="#263238"/>
<path d="M344.409 169.783L346.004 178.34L347.56 169.783H348.563L346.727 179.585H345.117L343.273 169.783H344.409Z" fill="#263238"/>
<path d="M353.204 174.124V175.104H350.808V178.589H353.756V179.585H349.719V169.783H353.756V170.81H350.808V174.155L353.204 174.124Z" fill="#263238"/>
<path d="M357.225 169.783C358.781 169.783 359.411 170.561 359.411 172.024V172.802C359.411 173.883 359.03 174.552 358.19 174.824C359.084 175.089 359.427 175.82 359.427 176.87V178.426C359.391 178.828 359.458 179.232 359.621 179.601H358.516C358.357 179.226 358.293 178.817 358.33 178.411V176.855C358.33 175.75 357.808 175.4 356.898 175.4H356.12V179.585H355.031V169.783H357.225ZM356.945 174.404C357.808 174.404 358.33 174.124 358.33 173.058V172.117C358.33 171.238 358.011 170.779 357.194 170.779H356.128V174.404H356.945Z" fill="#263238"/>
<path d="M366.77 174.124V175.104H364.382V178.589H367.323V179.585H363.316V169.783H367.354V170.81H364.413V174.155L366.77 174.124Z" fill="#263238"/>
<path d="M370.791 169.783C372.347 169.783 372.977 170.561 372.977 172.024V172.802C372.977 173.883 372.596 174.552 371.756 174.824C372.651 175.089 372.993 175.82 372.993 176.87V178.426C372.962 178.828 373.028 179.231 373.188 179.601H372.083C371.923 179.226 371.859 178.817 371.896 178.411V176.855C371.896 175.75 371.383 175.4 370.473 175.4H369.695V179.585H368.605V169.783H370.791ZM370.511 174.404C371.383 174.404 371.896 174.124 371.896 173.058V172.117C371.896 171.238 371.577 170.779 370.76 170.779H369.702V174.404H370.511Z" fill="#263238"/>
<path d="M376.588 169.783C378.144 169.783 378.774 170.561 378.774 172.024V172.802C378.774 173.883 378.393 174.552 377.553 174.824C378.455 175.089 378.79 175.82 378.79 176.87V178.426C378.758 178.828 378.825 179.231 378.984 179.601H377.88C377.724 179.224 377.66 178.816 377.693 178.411V176.855C377.693 175.75 377.18 175.4 376.269 175.4H375.491V179.585H374.395V169.783H376.588ZM376.308 174.404C377.18 174.404 377.693 174.124 377.693 173.058V172.117C377.693 171.238 377.374 170.779 376.565 170.779H375.499V174.404H376.308Z" fill="#263238"/>
<path d="M380.121 172.15C380.121 170.648 380.86 169.684 382.362 169.684C383.863 169.684 384.618 170.648 384.618 172.15V177.222C384.618 178.708 383.84 179.688 382.362 179.688C380.883 179.688 380.121 178.708 380.121 177.222V172.15ZM381.195 177.276C381.195 178.171 381.576 178.692 382.362 178.692C383.147 178.692 383.521 178.171 383.521 177.276V172.095C383.521 171.208 383.155 170.679 382.362 170.679C381.568 170.679 381.195 171.208 381.195 172.095V177.276Z" fill="#263238"/>
<path d="M388.116 169.783C389.672 169.783 390.294 170.561 390.294 172.024V172.802C390.294 173.883 389.92 174.552 389.08 174.824C389.975 175.089 390.309 175.82 390.309 176.87V178.426C390.276 178.828 390.346 179.233 390.512 179.601H389.399C389.247 179.224 389.186 178.816 389.22 178.411V176.855C389.22 175.75 388.699 175.4 387.789 175.4H387.011V179.585H385.922V169.783H388.116ZM387.836 174.404C388.699 174.404 389.22 174.124 389.22 173.058V172.117C389.22 171.238 388.894 170.779 388.085 170.779H387.019V174.404H387.836Z" fill="#263238"/>
<path d="M301.176 139.695V144.245C301.176 147.746 302.732 149.006 305.167 149.006C307.602 149.006 309.158 147.746 309.158 144.245V133.471C309.158 129.97 307.602 128.64 305.167 128.64C302.732 128.64 301.176 129.97 301.176 133.471V134.941H293.895L295.295 106.516H315.599V113.517H302.226L301.596 125.186C302.283 124.034 303.273 123.092 304.458 122.462C305.643 121.833 306.978 121.54 308.317 121.615C313.989 121.615 316.875 125.606 316.875 132.818V143.709C316.875 151.55 312.985 156.031 305.392 156.031C297.8 156.031 293.91 151.55 293.91 143.709V139.695H301.176Z" fill="#263238"/>
<path d="M322.742 118.285C322.742 110.444 326.873 105.963 334.411 105.963C341.949 105.963 346.08 110.444 346.08 118.285V143.771C346.08 151.612 341.949 156.093 334.411 156.093C326.873 156.093 322.742 151.612 322.742 143.771V118.285ZM330.444 144.261C330.444 147.761 332 149.092 334.435 149.092C336.869 149.092 338.425 147.761 338.425 144.261V117.811C338.425 114.31 336.869 112.98 334.435 112.98C332 112.98 330.444 114.31 330.444 117.811V144.261Z" fill="#263238"/>
<path d="M351.867 118.285C351.867 110.444 355.998 105.963 363.536 105.963C371.074 105.963 375.205 110.444 375.205 118.285V143.771C375.205 151.612 371.074 156.093 363.536 156.093C355.998 156.093 351.867 151.612 351.867 143.771V118.285ZM359.569 144.261C359.569 147.761 361.125 149.092 363.56 149.092C365.994 149.092 367.55 147.761 367.55 144.261V117.811C367.55 114.31 365.994 112.98 363.56 112.98C361.125 112.98 359.569 114.31 359.569 117.811V144.261Z" fill="#263238"/>
<path d="M157.941 231.135C162.798 230.409 167.745 231.641 171.695 234.558C178.051 239.444 182.882 251.867 185.379 269.262C187.876 286.657 189.269 294.156 203.948 296.63C218.628 299.104 253.806 298.1 274.818 297.61C295.83 297.12 294.858 277.57 277.269 275.618C259.68 273.665 247.497 278.356 229.146 274.295C210.794 270.234 245.482 264.859 271.886 268.772C298.289 272.685 310.004 273.657 324.186 272.195" stroke="#263238" stroke-width="2.51308" stroke-linecap="round" stroke-linejoin="round"/>
<path d="M157.941 205.121C157.941 205.121 172.185 205.23 176.091 219.902C179.996 234.574 181.466 255.096 181.956 271.246C182.446 287.396 182.936 301.064 201.506 304.969C220.075 308.874 270.423 307.412 284.107 304.479C297.791 301.546 312.945 288.352 301.704 285.42C290.463 282.487 274.818 285.42 280.7 289.309C286.581 293.199 302.209 292.242 320.779 289.799" stroke="#263238" stroke-width="2.51308" stroke-linecap="round" stroke-linejoin="round"/>
<path d="M160.866 256.145C160.866 256.145 169.571 255.367 172.971 265.224C176.371 275.08 172.193 277.328 174.107 282.245C176.02 287.162 187.938 282.572 187.884 286.648C187.829 290.367 183.115 291.417 155.95 289.814C120.429 287.722 96.9278 293.222 98.8182 296.629C100.709 300.036 129.088 297.407 122.273 302.681C115.458 307.956 98.8182 301.903 85.9511 301.546C73.0841 301.188 70.8125 304.191 70.8125 304.191" stroke="#263238" stroke-width="2.51308" stroke-linecap="round" stroke-linejoin="round"/>
<path d="M161.917 117.176H76.3905C74.861 117.176 73.6211 118.416 73.6211 119.945V281.974C73.6211 283.503 74.861 284.743 76.3905 284.743H161.917C163.446 284.743 164.686 283.503 164.686 281.974V119.945C164.686 118.416 163.446 117.176 161.917 117.176Z" fill="#263238" stroke="#263238" stroke-width="1.25654" stroke-linecap="round" stroke-linejoin="round"/>
<path d="M162.467 142.271H75.7969V206.459H162.467V142.271Z" fill="#616161"/>
<path d="M162.467 216.891H75.7969V281.078H162.467V216.891Z" fill="#616161"/>
<path d="M151.716 224.711H102.512V274.888H151.716V224.711Z" fill="#92E3A9" stroke="#263238" stroke-width="1.25654" stroke-linecap="round" stroke-linejoin="round"/>
<path d="M151.716 149.443H102.512V161.828H151.716V149.443Z" fill="#92E3A9" stroke="#263238" stroke-width="1.25654" stroke-linecap="round" stroke-linejoin="round"/>
<path d="M151.716 173.227H102.512V185.611H151.716V173.227Z" fill="#92E3A9" stroke="#263238" stroke-width="1.25654" stroke-linecap="round" stroke-linejoin="round"/>
<path d="M150.068 143.711L149.119 146.317H105.531L104.582 143.711H95.3477V155.162H104.582L105.531 152.556H149.119L150.068 155.162H160.523V143.711H150.068Z" fill="#263238" stroke="#263238" stroke-width="1.25654" stroke-linecap="round" stroke-linejoin="round"/>
<path d="M150.068 156.205L149.119 158.803H105.531L104.582 156.205H95.3477V167.648H104.582L105.531 165.05H149.119L150.068 167.648H160.523V156.205H150.068Z" fill="#263238" stroke="#263238" stroke-width="1.25654" stroke-linecap="round" stroke-linejoin="round"/>
<path d="M150.068 168.689L149.119 171.296H105.531L104.582 168.689H95.3477V180.141H104.582L105.531 177.535H149.119L150.068 180.141H160.523V168.689H150.068Z" fill="#263238" stroke="#263238" stroke-width="1.25654" stroke-linecap="round" stroke-linejoin="round"/>
<path d="M150.068 181.176L149.119 183.782H105.531L104.582 181.176H95.3477V192.627H104.582L105.531 190.029H149.119L150.068 192.627H160.523V181.176H150.068Z" fill="#263238" stroke="#263238" stroke-width="1.25654" stroke-linecap="round" stroke-linejoin="round"/>
<path d="M150.068 193.67L149.119 196.268H105.531L104.582 193.67H95.3477V205.121H104.582L105.531 202.515H149.119L150.068 205.121H160.523V193.67H150.068Z" fill="#263238" stroke="#263238" stroke-width="1.25654" stroke-linecap="round" stroke-linejoin="round"/>
<path d="M150.068 218.648L149.119 221.247H105.531L104.582 218.648H95.3477V230.092H104.582L105.531 227.494H149.119L150.068 230.092H160.523V218.648H150.068Z" fill="#263238" stroke="#263238" stroke-width="1.25654" stroke-linecap="round" stroke-linejoin="round"/>
<path d="M150.068 231.135L149.119 233.741H105.531L104.582 231.135H95.3477V242.586H104.582L105.531 239.988H149.119L150.068 242.586H160.523V231.135H150.068Z" fill="#263238" stroke="#263238" stroke-width="1.25654" stroke-linecap="round" stroke-linejoin="round"/>
<path d="M150.068 243.629L149.119 246.227H105.531L104.582 243.629H95.3477V255.072H104.582L105.531 252.474H149.119L150.068 255.072H160.523V243.629H150.068Z" fill="#263238" stroke="#263238" stroke-width="1.25654" stroke-linecap="round" stroke-linejoin="round"/>
<path d="M150.068 256.115L149.119 258.721H105.531L104.582 256.115H95.3477V267.566H104.582L105.531 264.96H149.119L150.068 267.566H160.523V256.115H150.068Z" fill="#263238" stroke="#263238" stroke-width="1.25654" stroke-linecap="round" stroke-linejoin="round"/>
<path d="M150.068 268.607L149.119 271.206H105.531L104.582 268.607H95.3477V280.051H104.582L105.531 277.453H149.119L150.068 280.051H160.523V268.607H150.068Z" fill="#263238" stroke="#263238" stroke-width="1.25654" stroke-linecap="round" stroke-linejoin="round"/>
<path d="M160.506 208.459H77.5391V216.277H160.506V208.459Z" fill="white"/>
<path d="M84.5439 212.286C84.5439 211.853 84.4157 211.431 84.1755 211.071C83.9353 210.712 83.5939 210.431 83.1944 210.266C82.795 210.101 82.3555 210.057 81.9314 210.142C81.5074 210.226 81.1179 210.434 80.8121 210.74C80.5064 211.046 80.2982 211.435 80.2139 211.859C80.1295 212.283 80.1728 212.723 80.3383 213.122C80.5037 213.522 80.7839 213.863 81.1434 214.103C81.5029 214.343 81.9255 214.472 82.3579 214.472C82.6449 214.472 82.9292 214.415 83.1944 214.305C83.4596 214.195 83.7006 214.034 83.9036 213.831C84.1066 213.628 84.2676 213.387 84.3775 213.122C84.4873 212.857 84.5439 212.573 84.5439 212.286Z" fill="#263238" stroke="#263238" stroke-width="1.25654" stroke-linecap="round" stroke-linejoin="round"/>
<path d="M89.6391 214.472C90.8464 214.472 91.8251 213.493 91.8251 212.286C91.8251 211.078 90.8464 210.1 89.6391 210.1C88.4318 210.1 87.4531 211.078 87.4531 212.286C87.4531 213.493 88.4318 214.472 89.6391 214.472Z" fill="#92E3A9" stroke="#263238" stroke-width="1.25654" stroke-linecap="round" stroke-linejoin="round"/>
<path d="M99.1064 212.286C99.1064 211.853 98.9782 211.431 98.738 211.071C98.4978 210.712 98.1564 210.431 97.7569 210.266C97.3575 210.101 96.9179 210.057 96.4939 210.142C96.0699 210.226 95.6804 210.434 95.3746 210.74C95.0689 211.046 94.8607 211.435 94.7764 211.859C94.692 212.283 94.7353 212.723 94.9008 213.122C95.0662 213.522 95.3464 213.863 95.7059 214.103C96.0654 214.343 96.488 214.472 96.9204 214.472C97.5001 214.472 98.0562 214.241 98.4661 213.831C98.8761 213.421 99.1064 212.865 99.1064 212.286Z" fill="#263238" stroke="#263238" stroke-width="1.25654" stroke-linecap="round" stroke-linejoin="round"/>
<path d="M160.506 133.521H77.5391V141.34H160.506V133.521Z" fill="white"/>
<path d="M84.5439 137.362C84.5439 136.929 84.4157 136.507 84.1755 136.147C83.9353 135.788 83.5939 135.508 83.1944 135.342C82.795 135.177 82.3555 135.133 81.9314 135.218C81.5074 135.302 81.1179 135.51 80.8121 135.816C80.5064 136.122 80.2982 136.511 80.2139 136.935C80.1295 137.359 80.1728 137.799 80.3383 138.198C80.5037 138.598 80.7839 138.939 81.1434 139.179C81.5029 139.42 81.9255 139.548 82.3579 139.548C82.6449 139.548 82.9292 139.491 83.1944 139.381C83.4596 139.272 83.7006 139.111 83.9036 138.908C84.1066 138.705 84.2676 138.464 84.3775 138.198C84.4873 137.933 84.5439 137.649 84.5439 137.362Z" fill="white" stroke="#263238" stroke-width="1.25654" stroke-linecap="round" stroke-linejoin="round"/>
<path d="M91.8173 137.362C91.8173 136.929 91.6891 136.507 91.4489 136.147C91.2087 135.788 90.8673 135.508 90.4679 135.342C90.0684 135.177 89.6289 135.133 89.2048 135.218C88.7808 135.302 88.3913 135.51 88.0856 135.816C87.7799 136.122 87.5717 136.511 87.4873 136.935C87.403 137.359 87.4463 137.799 87.6117 138.198C87.7772 138.598 88.0574 138.939 88.4168 139.179C88.7763 139.42 89.199 139.548 89.6313 139.548C90.2111 139.548 90.7671 139.317 91.177 138.908C91.587 138.498 91.8173 137.942 91.8173 137.362Z" fill="#92E3A9" stroke="#263238" stroke-width="1.25654" stroke-linecap="round" stroke-linejoin="round"/>
<path d="M99.1064 137.362C99.1064 136.929 98.9782 136.507 98.738 136.147C98.4978 135.788 98.1564 135.508 97.7569 135.342C97.3575 135.177 96.9179 135.133 96.4939 135.218C96.0699 135.302 95.6804 135.51 95.3746 135.816C95.0689 136.122 94.8607 136.511 94.7764 136.935C94.692 137.359 94.7353 137.799 94.9008 138.198C95.0662 138.598 95.3464 138.939 95.7059 139.179C96.0654 139.42 96.488 139.548 96.9204 139.548C97.5001 139.548 98.0562 139.317 98.4661 138.908C98.8761 138.498 99.1064 137.942 99.1064 137.362Z" fill="white" stroke="#263238" stroke-width="1.25654" stroke-linecap="round" stroke-linejoin="round"/>
<path d="M160.506 123.461H77.5391V131.279H160.506V123.461Z" fill="white"/>
<path d="M84.5439 127.29C84.5439 126.857 84.4157 126.435 84.1755 126.075C83.9353 125.716 83.5939 125.435 83.1944 125.27C82.795 125.104 82.3555 125.061 81.9314 125.146C81.5074 125.23 81.1179 125.438 80.8121 125.744C80.5064 126.05 80.2982 126.439 80.2139 126.863C80.1295 127.287 80.1728 127.727 80.3383 128.126C80.5037 128.525 80.7839 128.867 81.1434 129.107C81.5029 129.347 81.9255 129.476 82.3579 129.476C82.6449 129.476 82.9292 129.419 83.1944 129.309C83.4596 129.199 83.7006 129.038 83.9036 128.835C84.1066 128.632 84.2676 128.391 84.3775 128.126C84.4873 127.861 84.5439 127.577 84.5439 127.29Z" fill="#92E3A9" stroke="#263238" stroke-width="1.25654" stroke-linecap="round" stroke-linejoin="round"/>
<path d="M91.8176 127.29C91.8176 126.857 91.6893 126.435 91.4491 126.075C91.2089 125.716 90.8675 125.435 90.4681 125.27C90.0687 125.104 89.6291 125.061 89.2051 125.146C88.781 125.23 88.3915 125.438 88.0858 125.744C87.7801 126.05 87.5719 126.439 87.4876 126.863C87.4032 127.287 87.4465 127.727 87.612 128.126C87.7774 128.525 88.0576 128.867 88.4171 129.107C88.7766 129.347 89.1992 129.476 89.6316 129.476C90.2113 129.476 90.7673 129.245 91.1773 128.835C91.5872 128.425 91.8176 127.869 91.8176 127.29Z" fill="#263238" stroke="#263238" stroke-width="1.25654" stroke-linecap="round" stroke-linejoin="round"/>
<path d="M99.1064 127.29C99.1064 126.857 98.9782 126.435 98.738 126.075C98.4978 125.716 98.1564 125.435 97.7569 125.27C97.3575 125.104 96.9179 125.061 96.4939 125.146C96.0699 125.23 95.6804 125.438 95.3746 125.744C95.0689 126.05 94.8607 126.439 94.7764 126.863C94.692 127.287 94.7353 127.727 94.9008 128.126C95.0662 128.525 95.3464 128.867 95.7059 129.107C96.0654 129.347 96.488 129.476 96.9204 129.476C97.5001 129.476 98.0562 129.245 98.4661 128.835C98.8761 128.425 99.1064 127.869 99.1064 127.29Z" fill="#263238" stroke="#263238" stroke-width="1.25654" stroke-linecap="round" stroke-linejoin="round"/>
<path d="M91.4339 143.904H77.75V149.77H91.4339V143.904Z" fill="#263238" stroke="#263238" stroke-width="1.25654" stroke-linecap="round" stroke-linejoin="round"/>
<path d="M91.4339 156.609H77.75V162.475H91.4339V156.609Z" fill="#263238" stroke="#263238" stroke-width="1.25654" stroke-linecap="round" stroke-linejoin="round"/>
<path d="M91.4339 169.32H77.75V175.186H91.4339V169.32Z" fill="#92E3A9" stroke="#263238" stroke-width="1.25654" stroke-linecap="round" stroke-linejoin="round"/>
<path d="M91.4339 182.025H77.75V187.891H91.4339V182.025Z" fill="#92E3A9" stroke="#263238" stroke-width="1.25654" stroke-linecap="round" stroke-linejoin="round"/>
<path d="M91.4339 194.736H77.75V200.602H91.4339V194.736Z" fill="#92E3A9" stroke="#263238" stroke-width="1.25654" stroke-linecap="round" stroke-linejoin="round"/>
<path d="M91.4339 218.518H77.75V224.383H91.4339V218.518Z" fill="#92E3A9" stroke="#263238" stroke-width="1.25654" stroke-linecap="round" stroke-linejoin="round"/>
<path d="M91.4339 231.23H77.75V237.096H91.4339V231.23Z" fill="#263238" stroke="#263238" stroke-width="1.25654" stroke-linecap="round" stroke-linejoin="round"/>
<path d="M91.4339 243.932H77.75V249.797H91.4339V243.932Z" fill="#92E3A9" stroke="#263238" stroke-width="1.25654" stroke-linecap="round" stroke-linejoin="round"/>
<path d="M91.4339 256.645H77.75V262.51H91.4339V256.645Z" fill="#263238" stroke="#263238" stroke-width="1.25654" stroke-linecap="round" stroke-linejoin="round"/>
<path d="M91.4339 269.348H77.75V275.213H91.4339V269.348Z" fill="#92E3A9" stroke="#263238" stroke-width="1.25654" stroke-linecap="round" stroke-linejoin="round"/>
<path d="M206.049 81.6309C206.049 81.6309 192.933 84.9682 189.293 89.9548C185.652 94.9413 170.895 128.852 170.895 128.852C170.895 128.852 166.11 134.219 171.284 139.393C176.457 144.566 186.803 146.48 190.639 141.882C194.474 137.284 200.02 115.627 200.791 113.137C201.561 110.648 207.302 89.5658 207.878 88.4222C208.453 87.2787 209.006 82.3154 206.049 81.6309Z" fill="#BDBDBD" stroke="#263238" stroke-width="1.25654" stroke-linecap="round" stroke-linejoin="round"/>
<path d="M206.049 81.6309C206.049 81.6309 192.933 84.9682 189.292 89.9548C187.09 92.9654 180.82 106.579 176.207 116.856C178.447 116.405 187.783 115.02 198.713 120.528C199.763 116.856 200.541 113.954 200.79 113.137C201.568 110.648 207.301 89.5658 207.877 88.4222C208.452 87.2787 209.005 82.3154 206.049 81.6309Z" fill="#263238" stroke="#263238" stroke-width="1.25654" stroke-linecap="round" stroke-linejoin="round"/>
<path d="M244.478 37.4524C246.734 38.7258 248.541 40.666 249.651 43.0068C251.207 46.6476 251.207 52.202 251.207 52.202C251.207 52.202 275.735 51.4241 285.125 51.2452C294.515 51.0662 300.839 53.3534 301.026 57.951C301.213 62.5486 299.112 71.557 293.939 75.0033C288.766 78.4495 272.67 72.8951 264.432 70.6002C256.194 68.3053 253.315 69.0443 247.38 68.2664C241.444 67.4884 239.709 65.2013 238.752 61.5606C237.795 57.9198 239.709 51.0196 239.709 45.4651C239.709 39.9106 238.923 36.301 244.478 37.4524Z" fill="#BDBDBD" stroke="#263238" stroke-width="1.25654" stroke-linecap="round" stroke-linejoin="round"/>
<path d="M280.31 61.0154C280.31 61.0154 276.864 69.8294 270.54 74.6214C266.004 78.0599 259.882 80.0203 256.793 80.8449C245.739 77.7332 230.134 76.2707 221.008 78.2933C221.008 78.2933 208.266 81.3428 206.049 81.6229C203.832 81.9029 198.565 99.632 197.453 111.822C196.34 124.013 199.95 154.22 199.95 156.437C199.95 158.654 201.334 195.513 203.552 205.766C205.769 216.019 208.266 229.882 208.538 231.811C208.81 233.74 210.755 248.148 210.755 252.87C210.755 257.592 208.507 268.95 208.507 268.95C208.507 268.95 198.534 275.601 194.652 279.475C190.77 283.349 197.507 287.441 202.431 288.344C210.786 289.899 220.713 281.692 220.713 281.692L231.845 277.266C234.793 276.083 235.665 272.917 235.735 270.078L236.248 249.556C237.991 256.816 239.422 264.152 240.542 271.563C240.994 274.597 241.46 277.787 243.289 280.237C244.303 281.644 245.615 282.81 247.132 283.653C248.236 284.166 249.411 284.057 250.523 284.695C252.569 285.877 253.409 288.429 255.393 289.713C259.665 292.239 264.568 293.494 269.528 293.33C269.528 293.33 280.606 293.89 281.197 287.791C281.789 281.692 266.782 271.719 266.782 271.719C266.782 271.719 264.565 231.266 262.893 217.964C261.22 204.661 256.793 183.05 256.793 173.621C256.793 164.193 261.228 119.858 261.228 119.858C261.228 119.858 261.679 118.691 262.371 116.793L263.103 116.389C269.427 112.748 287.055 98.5663 292.804 89.5578C298.312 80.9383 300.303 64.765 300.459 60.0352" fill="#BDBDBD"/>
<path d="M280.31 61.0154C280.31 61.0154 276.864 69.8294 270.54 74.6214C266.004 78.0599 259.882 80.0203 256.793 80.8449C245.739 77.7332 230.134 76.2707 221.008 78.2933C221.008 78.2933 208.266 81.3428 206.049 81.6229C203.832 81.9029 198.565 99.632 197.453 111.822C196.34 124.013 199.95 154.22 199.95 156.437C199.95 158.654 201.334 195.513 203.552 205.766C205.769 216.019 208.266 229.882 208.538 231.811C208.81 233.74 210.755 248.148 210.755 252.87C210.755 257.592 208.507 268.95 208.507 268.95C208.507 268.95 198.534 275.601 194.652 279.475C190.77 283.349 197.507 287.441 202.431 288.344C210.786 289.899 220.713 281.692 220.713 281.692L231.845 277.266C234.793 276.083 235.665 272.917 235.735 270.078L236.248 249.556C237.991 256.816 239.422 264.152 240.542 271.563C240.994 274.597 241.46 277.787 243.289 280.237C244.303 281.644 245.615 282.81 247.132 283.653C248.236 284.166 249.411 284.057 250.523 284.695C252.569 285.877 253.409 288.429 255.393 289.713C259.665 292.239 264.568 293.494 269.528 293.33C269.528 293.33 280.606 293.89 281.197 287.791C281.789 281.692 266.782 271.719 266.782 271.719C266.782 271.719 264.565 231.266 262.893 217.964C261.22 204.661 256.793 183.05 256.793 173.621C256.793 164.193 261.228 119.858 261.228 119.858C261.228 119.858 261.679 118.691 262.371 116.793L263.103 116.389C269.427 112.748 287.055 98.5663 292.804 89.5578C298.312 80.9383 300.303 64.765 300.459 60.0352" stroke="#263238" stroke-width="1.25654" stroke-linecap="round" stroke-linejoin="round"/>
<path d="M281.144 287.792C281.696 281.693 266.729 271.72 266.729 271.72C266.729 271.72 266.558 268.609 266.278 263.824C257.596 265.916 248.696 266.961 239.766 266.936C240.03 268.492 240.289 270.048 240.544 271.604C240.995 274.638 241.462 277.827 243.29 280.278C244.304 281.684 245.616 282.85 247.133 283.693C248.237 284.206 249.412 284.097 250.524 284.735C252.57 285.918 253.411 288.469 255.394 289.753C259.666 292.279 264.569 293.534 269.529 293.37C269.529 293.37 280.584 293.891 281.144 287.792Z" fill="#263238" stroke="#263238" stroke-width="1.25654" stroke-linecap="round" stroke-linejoin="round"/>
<path d="M231.845 277.266C234.794 276.083 235.665 272.917 235.735 270.078C235.735 269.004 235.789 267.931 235.813 266.857C226.967 266.558 218.179 265.3 209.604 263.107C209.075 266.344 208.562 268.95 208.562 268.95C208.562 268.95 198.589 275.601 194.707 279.475C190.825 283.349 197.562 287.441 202.486 288.344C210.841 289.899 220.768 281.692 220.768 281.692L231.845 277.266Z" fill="#263238" stroke="#263238" stroke-width="1.25654" stroke-linecap="round" stroke-linejoin="round"/>
<path d="M281.144 287.792C281.144 287.707 281.144 287.613 281.144 287.52C278.696 289.271 275.867 290.418 272.89 290.865C264.131 292.421 256.149 287.948 254.01 286.003C251.871 284.058 250.509 282.494 247.195 280.355C243.881 278.216 240.886 272.949 240.886 272.949L240.762 273.144C241.174 275.672 241.75 278.2 243.267 280.238C244.281 281.645 245.593 282.811 247.11 283.654C248.214 284.167 249.389 284.058 250.501 284.696C252.547 285.879 253.388 288.43 255.371 289.714C259.643 292.24 264.546 293.495 269.506 293.331C269.506 293.331 280.584 293.891 281.144 287.792Z" fill="white" stroke="#263238" stroke-width="1.25654" stroke-linecap="round" stroke-linejoin="round"/>
<path d="M231.845 277.267C234.42 276.232 235.408 273.696 235.672 271.184C233.121 272.739 227.224 276.139 223.482 277.633C218.62 279.578 215.306 285.412 205.776 285.412C198.977 285.412 195.251 282.752 193.672 281.219C192.832 284.502 198.339 287.575 202.478 288.345C210.833 289.901 220.759 281.694 220.759 281.694L231.845 277.267Z" fill="white" stroke="#263238" stroke-width="1.25654" stroke-linecap="round" stroke-linejoin="round"/>
<path d="M267.81 76.4258C264.337 78.3539 260.637 79.8409 256.795 80.8522C245.74 77.7405 230.135 76.278 221.01 78.3006C221.01 78.3006 208.267 81.3501 206.05 81.6302C203.833 81.9102 198.566 99.6394 197.454 111.83C196.769 119.36 197.882 133.736 198.831 144.168C221.928 152.632 246.557 149.731 258.6 147.428C259.813 133.612 261.19 119.866 261.19 119.866C261.19 119.866 261.641 118.699 262.334 116.801L263.065 116.396C267.367 113.922 276.873 106.586 284.334 99.2815C269.359 94.964 267.546 83.1549 267.81 76.4258Z" fill="#263238" stroke="#263238" stroke-width="1.25654" stroke-linecap="round" stroke-linejoin="round"/>
<path d="M246.337 89.6428C246.291 87.3161 245.696 85.0332 244.601 82.9798C243.507 80.9263 241.942 79.1605 240.036 77.8259C232.957 77.1413 226.033 77.188 221.007 78.3005C221.007 78.3005 217.483 79.1484 213.819 79.9808C211.352 82.5966 209.963 86.0472 209.93 89.6428C209.93 98.2856 218.082 105.295 228.133 105.295C238.184 105.295 246.337 98.2856 246.337 89.6428Z" fill="#616161" stroke="#263238" stroke-width="1.25654" stroke-linecap="round" stroke-linejoin="round"/>
<path d="M240.889 272.949C245.045 274.411 249.451 275.03 253.849 274.769C263.41 274.357 266.732 271.72 266.732 271.72C266.732 271.72 264.515 231.267 262.842 217.964C261.169 204.662 256.743 183.051 256.743 173.622C256.743 168.068 258.299 150.385 259.551 136.803L258.952 136.873C257.36 137.058 255.747 136.898 254.223 136.404C252.698 135.909 251.298 135.093 250.117 134.009C248.936 132.926 248.002 131.601 247.379 130.124C246.756 128.648 246.458 127.054 246.505 125.452L246.77 116.607C239.56 117.078 232.322 116.869 225.151 115.985C212.268 114.53 198.966 110.166 198.966 110.166L197.565 110.594C197.565 111.006 197.48 111.418 197.441 111.823C196.336 124.021 199.938 154.22 199.938 156.438C199.938 158.655 201.323 195.513 203.54 205.766C205.757 216.02 208.254 229.882 208.527 231.812C208.799 233.741 210.744 248.148 210.744 252.87C210.744 257.592 208.612 268.522 208.534 268.927C210.199 269.44 213.684 270.483 219.962 272.264C229.515 274.972 235.684 271.712 235.684 271.712C235.684 268.39 236.237 249.549 236.237 249.549C236.237 249.549 239.753 265.496 240.889 272.949Z" fill="white" stroke="#263238" stroke-width="1.25654" stroke-linecap="round" stroke-linejoin="round"/>
<path d="M209.233 121.844L234.119 125.936V141.277L220.14 155.264L208.891 141.619L209.233 121.844Z" stroke="#263238" stroke-width="1.25654" stroke-linecap="round" stroke-linejoin="round"/>
<path d="M227.179 208.107C225.382 197.994 224.067 188.006 224.067 180.833L214.094 174.182" stroke="#263238" stroke-width="1.25654" stroke-linecap="round" stroke-linejoin="round"/>
<path d="M236.249 249.556C236.249 249.556 232.048 233.321 228.578 215.537" stroke="#263238" stroke-width="1.25654" stroke-linecap="round" stroke-linejoin="round"/>
<path d="M243.664 163.603C243.89 164.501 244.235 165.364 244.691 166.17C247.764 171.616 252.19 172.308 252.19 172.308L252.875 157.986" stroke="#263238" stroke-width="1.25654" stroke-linecap="round" stroke-linejoin="round"/>
<path d="M244.691 155.254C244.161 156.286 243.781 157.389 243.562 158.529" stroke="#263238" stroke-width="1.25654" stroke-linecap="round" stroke-linejoin="round"/>
<path d="M256.91 198.82C257.268 200.711 257.634 202.57 257.991 204.344" stroke="#263238" stroke-width="1.25654" stroke-linecap="round" stroke-linejoin="round"/>
<path d="M252.191 172.309C252.191 172.309 253.95 182.818 255.98 193.834" stroke="#263238" stroke-width="1.25654" stroke-linecap="round" stroke-linejoin="round"/>
<path d="M219.398 72.4054L219.243 80.5737C219.243 80.5737 216.427 82.8297 215.867 88.742C215.307 94.6543 220.939 100.154 227.271 100.154C233.604 100.154 239.104 95.2222 240.092 90.718C241.08 86.2137 239.804 79.7335 239.804 79.7335L239.384 69.8771C239.384 69.8771 233.16 73.8134 227.271 72.6932C221.382 71.573 219.671 69.4492 219.671 69.4492L219.398 72.4054Z" fill="#BDBDBD" stroke="#263238" stroke-width="1.25654" stroke-linecap="round" stroke-linejoin="round"/>
<path d="M214.973 51.0889C214.973 51.0889 214.592 55.7565 215.603 56.9001C216.614 58.0437 218.007 58.9227 218.263 57.9114C218.52 56.9001 218.637 51.5946 218.894 50.4588C219.15 49.323 215.097 47.8994 214.973 51.0889Z" fill="#BDBDBD" stroke="#263238" stroke-width="1.25654" stroke-linecap="round" stroke-linejoin="round"/>
<path d="M217.447 51.0113C217.447 51.0113 216.288 60.3465 216.288 64.8663C216.288 69.3861 214.538 71.0898 220.178 74.0304C225.818 76.971 230.703 77.3444 234.601 75.9752C238.498 74.606 240.645 71.3076 240.824 68.5693C241.003 65.8309 241.019 61.5679 241.019 61.5679C241.019 61.5679 246.464 56.698 245.313 53.0106C244.161 49.3232 241.61 53.983 241.61 53.983C242.683 50.7798 243.209 47.4188 243.166 44.041C242.971 38.9688 239.074 38.3854 237.51 38.3854C235.946 38.3854 226.401 35.4526 221.928 38.3465C217.455 41.2404 217.447 51.0113 217.447 51.0113Z" fill="#BDBDBD" stroke="#263238" stroke-width="1.25654" stroke-linecap="round" stroke-linejoin="round"/>
<path d="M241.623 53.9452C242.696 50.742 243.222 47.3811 243.179 44.0032C242.984 38.9311 239.087 38.3477 237.523 38.3477H237.422C236.597 39.7324 235.578 41.8639 235.578 41.8639L236.356 42.2529C236.356 42.2529 235.578 46.5471 237.134 47.1305C238.69 47.714 237.912 49.0754 237.912 51.417C237.912 53.7585 239.281 55.5089 240.059 55.5089C240.674 55.5089 241.615 53.953 242.035 53.2762C241.778 53.6496 241.623 53.9452 241.623 53.9452Z" fill="#263238" stroke="#263238" stroke-width="1.25654" stroke-linecap="round" stroke-linejoin="round"/>
<path d="M226.222 54.5039C226.222 54.5039 224.58 56.0131 225.335 57.1567C226.09 58.3002 228.875 58.9226 229.637 57.5301C229.899 57.062 229.992 56.5179 229.9 55.9894C229.808 55.4609 229.536 54.9802 229.131 54.6284" stroke="#263238" stroke-width="1.25654" stroke-linecap="round" stroke-linejoin="round"/>
<path d="M224.455 52.9882C224.455 53.7661 224.144 54.3729 223.755 54.3729C223.366 54.3729 223.062 53.7506 223.062 52.9882C223.062 52.2258 223.374 51.5957 223.755 51.5957C224.136 51.5957 224.455 52.2181 224.455 52.9882Z" fill="#263238"/>
<path d="M232.857 53.3457C232.857 54.1236 232.546 54.7382 232.165 54.7382C231.784 54.7382 231.465 54.1158 231.465 53.3457C231.465 52.5755 231.776 51.9609 232.165 51.9609C232.554 51.9609 232.857 52.5677 232.857 53.3457Z" fill="#263238"/>
<path d="M230.773 49.5722C230.773 49.5722 233.426 47.7986 235.954 50.5836" stroke="#263238" stroke-width="1.25654" stroke-linecap="round" stroke-linejoin="round"/>
<path d="M226.742 62.0117C226.409 61.844 226.044 61.749 225.671 61.7329C225.298 61.7168 224.926 61.78 224.58 61.9184C224.285 62.0408 224.02 62.225 223.803 62.4585C223.585 62.692 223.421 62.9694 223.319 63.272C223.319 63.272 221.701 64.5711 223.405 65.139C225.109 65.7069 228.851 65.668 229.792 65.6291C230.169 65.5768 230.51 65.3789 230.743 65.0779C230.975 64.7768 231.081 64.3967 231.037 64.0188C231.045 63.8657 231.012 63.7131 230.943 63.5765C230.873 63.4399 230.769 63.3241 230.64 63.2409C230.248 62.6001 229.637 62.1227 228.921 61.8968C228.205 61.6709 227.431 61.7117 226.742 62.0117Z" fill="#666666" stroke="#263238" stroke-width="0.922744" stroke-linecap="round" stroke-linejoin="round"/>
<path d="M222.953 63.7621C225.573 63.3478 228.251 63.507 230.802 64.2289" stroke="#263238" stroke-width="1.07327" stroke-linecap="round" stroke-linejoin="round"/>
<path d="M214.136 40.2994L235 43.2322C235 43.2322 243.767 40.8984 244.553 39.1403C245.339 37.3822 242.406 28.6148 240.842 26.4677C239.279 24.3206 224.272 28.0236 219.589 28.8015C214.906 29.5795 211.405 30.7386 211.623 33.1191C211.841 35.4996 214.136 40.2994 214.136 40.2994Z" fill="#92E3A9" stroke="#263238" stroke-width="1.25654" stroke-linecap="round" stroke-linejoin="round"/>
<path d="M214.134 40.2988C214.134 40.2988 202.239 50.0464 202.045 51.011C201.85 51.9756 219.393 52.3724 224.854 51.2055C230.315 50.0386 234.967 43.2083 234.967 43.2083L214.134 40.2988Z" fill="white" stroke="#263238" stroke-width="1.25654" stroke-linecap="round" stroke-linejoin="round"/>
<path d="M201.134 169.538L233.808 150.377C234.89 151.187 236.199 151.636 237.551 151.661C238.902 151.686 240.227 151.285 241.338 150.514C242.449 149.744 243.289 148.644 243.74 147.37C244.191 146.096 244.23 144.712 243.851 143.415L237.028 147.406L235.473 144.722L242.303 140.723C241.357 139.755 240.131 139.11 238.798 138.878C237.464 138.647 236.092 138.841 234.876 139.433C233.659 140.026 232.66 140.986 232.02 142.178C231.38 143.371 231.132 144.734 231.311 146.075L198.598 165.236C197.516 164.426 196.207 163.977 194.855 163.952C193.504 163.927 192.179 164.329 191.068 165.099C189.957 165.869 189.117 166.969 188.666 168.243C188.215 169.517 188.176 170.901 188.555 172.198L195.199 168.309L196.755 171L190.111 174.89C191.055 175.86 192.282 176.507 193.615 176.739C194.949 176.972 196.321 176.778 197.538 176.185C198.755 175.592 199.754 174.631 200.393 173.437C201.031 172.244 201.277 170.879 201.096 169.538H201.134Z" fill="#92E3A9" stroke="#263238" stroke-width="1.25654" stroke-linecap="round" stroke-linejoin="round"/>
<path d="M228.961 155.295C228.961 155.295 232.983 158.173 232.983 160.849C232.983 163.525 228.191 166.412 224.94 166.598C221.688 166.785 221.104 163.152 221.68 161.238C222.256 159.325 228.961 155.295 228.961 155.295Z" fill="#BDBDBD" stroke="#263238" stroke-width="1.25654" stroke-linecap="round" stroke-linejoin="round"/>
<path d="M186.803 131.34C186.803 131.34 209.029 143.787 212.094 143.414C215.159 143.04 219.376 140.348 221.678 141.08C223.981 141.811 230.298 151.621 230.873 153.348C231.449 155.075 226.276 161.205 225.125 162.162C223.973 163.119 220.332 166.954 219.57 167.335C218.808 167.716 213.821 172.127 211.332 172.127C208.842 172.127 204.626 170.206 204.237 169.249C203.848 168.292 204.813 166.954 204.813 166.954L193.144 161.586C193.144 161.586 170.91 149.513 167.083 143.382C163.255 137.252 172.832 126.33 172.832 126.33" fill="#BDBDBD"/>
<path d="M186.803 131.34C186.803 131.34 209.029 143.787 212.094 143.414C215.159 143.04 219.376 140.348 221.678 141.08C223.981 141.811 230.298 151.621 230.873 153.348C231.449 155.075 226.276 161.205 225.125 162.162C223.973 163.119 220.332 166.954 219.57 167.335C218.808 167.716 213.821 172.127 211.332 172.127C208.842 172.127 204.626 170.206 204.237 169.249C203.848 168.292 204.813 166.954 204.813 166.954L193.144 161.586C193.144 161.586 170.91 149.513 167.083 143.382C163.255 137.252 172.832 126.33 172.832 126.33" stroke="#263238" stroke-width="1.25654" stroke-linecap="round" stroke-linejoin="round"/>
<path d="M212.484 161.424C213.164 161.514 213.794 161.826 214.278 162.311C214.762 162.797 215.072 163.428 215.16 164.108C215.549 166.597 214.585 171.008 214.585 171.008" stroke="#263238" stroke-width="1.25654" stroke-linecap="round" stroke-linejoin="round"/>
<path d="M216.887 157.783C216.887 157.783 219.571 157.978 219.571 160.467V167.367" stroke="#263238" stroke-width="1.25654" stroke-linecap="round" stroke-linejoin="round"/>
<path d="M219.762 150.891C219.762 150.891 224.741 154.531 225.122 156.64C225.333 158.485 225.333 160.349 225.122 162.194" stroke="#263238" stroke-width="1.25654" stroke-linecap="round" stroke-linejoin="round"/>
<path d="M241.958 137.751C243.078 137.751 246.042 130.329 246.042 127.544C246.042 124.759 247.341 104.354 250.313 94.8712C252.445 88.0798 254.281 82.8365 255.152 80.4016C252.888 79.8259 250.484 79.3125 247.979 78.8457C246.493 83.3499 241.958 97.4072 240.107 106.346C237.882 117.105 238.434 129.909 238.621 131.022C238.807 132.134 240.861 137.751 241.958 137.751Z" fill="white" stroke="#263238" stroke-width="1.25654" stroke-linecap="round" stroke-linejoin="round"/>
<path d="M246.051 115.238L239.682 114.402C239.159 114.333 238.679 114.701 238.61 115.225L237.943 120.308C237.874 120.831 238.242 121.311 238.765 121.379L245.135 122.216C245.658 122.284 246.138 121.916 246.206 121.393L246.874 116.31C246.942 115.787 246.574 115.307 246.051 115.238Z" fill="white" stroke="#263238" stroke-width="1.25465" stroke-linecap="round" stroke-linejoin="round"/>
<path d="M244.374 116.854L241.081 116.417C240.557 116.347 240.076 116.716 240.007 117.24L239.676 119.73C239.607 120.254 239.975 120.735 240.499 120.805L243.792 121.242C244.316 121.311 244.797 120.943 244.866 120.419L245.197 117.928C245.266 117.404 244.898 116.923 244.374 116.854Z" fill="white" stroke="#263238" stroke-width="1.25654" stroke-linecap="round" stroke-linejoin="round"/>
<path d="M200.409 134.966C201.529 134.966 204.493 127.545 204.493 124.76C204.493 121.975 205.793 101.569 208.764 92.0863C210.647 86.0806 211.93 82.2454 212.654 80.2461C209.752 80.8996 206.998 81.4986 206.08 81.6153C205.396 81.7008 204.431 83.4356 203.381 86.1428C202.152 89.9547 200.65 94.9102 199.491 99.7411C198.584 103.721 197.922 107.753 197.508 111.815C197.246 115.889 197.228 119.975 197.453 124.052C197.453 124.192 197.469 124.301 197.5 124.378C197.616 125.506 199.297 134.966 200.409 134.966Z" fill="white" stroke="#263238" stroke-width="1.25654" stroke-linecap="round" stroke-linejoin="round"/>
<path d="M204.638 109.911L198.241 109.228C197.715 109.172 197.244 109.553 197.188 110.078L196.643 115.184C196.587 115.709 196.967 116.181 197.493 116.237L203.89 116.919C204.415 116.975 204.887 116.595 204.943 116.069L205.488 110.964C205.544 110.438 205.163 109.967 204.638 109.911Z" fill="white" stroke="#263238" stroke-width="1.25654" stroke-linecap="round" stroke-linejoin="round"/>
<path d="M202.942 111.044L199.639 110.691C199.113 110.635 198.642 111.016 198.586 111.541L198.319 114.04C198.263 114.565 198.644 115.037 199.169 115.093L202.472 115.445C202.998 115.501 203.469 115.121 203.525 114.595L203.792 112.097C203.848 111.571 203.467 111.1 202.942 111.044Z" fill="white" stroke="#263238" stroke-width="1.25654" stroke-linecap="round" stroke-linejoin="round"/>
</svg>
